<svg width="17" height="17" viewBox="0 0 17 17" fill="none" xmlns="http://www.w3.org/2000/svg">
<path d="M0.500122 8.40909C0.500122 8.68523 0.72398 8.90909 1.00012 8.90909C1.27626 8.90909 1.50012 8.68523 1.50012 8.40909H0.500122ZM16.3536 4.35355C16.5489 4.15829 16.5489 3.84171 16.3536 3.64645L13.1716 0.464466C12.9764 0.269204 12.6598 0.269204 12.4645 0.464466C12.2693 0.659728 12.2693 0.976311 12.4645 1.17157L15.293 4L12.4645 6.82843C12.2693 7.02369 12.2693 7.34027 12.4645 7.53553C12.6598 7.7308 12.9764 7.7308 13.1716 7.53553L16.3536 4.35355ZM1.50012 8.40909C1.50012 7.26548 1.73947 6.26928 2.19167 5.57579C2.6289 4.90525 3.27209 4.5 4.18193 4.5V3.5C2.90996 3.5 1.96224 4.09681 1.35402 5.02959C0.760769 5.9394 0.500122 7.14775 0.500122 8.40909H1.50012ZM4.18193 4.5C4.18619 4.5 4.19047 4.5 4.19476 4.5C4.19906 4.5 4.20337 4.5 4.2077 4.5C4.21203 4.5 4.21637 4.5 4.22073 4.5C4.2251 4.5 4.22947 4.5 4.23387 4.5C4.23826 4.5 4.24268 4.5 4.24711 4.5C4.25153 4.5 4.25598 4.5 4.26044 4.5C4.2649 4.5 4.26938 4.5 4.27388 4.5C4.27837 4.5 4.28288 4.5 4.28741 4.5C4.29194 4.5 4.29648 4.5 4.30104 4.5C4.3056 4.5 4.31018 4.5 4.31477 4.5C4.31936 4.5 4.32397 4.5 4.3286 4.5C4.33322 4.5 4.33787 4.5 4.34252 4.5C4.34718 4.5 4.35185 4.5 4.35654 4.5C4.36124 4.5 4.36594 4.5 4.37066 4.5C4.37539 4.5 4.38012 4.5 4.38488 4.5C4.38963 4.5 4.3944 4.5 4.39919 4.5C4.40397 4.5 4.40878 4.5 4.4136 4.5C4.41841 4.5 4.42325 4.5 4.4281 4.5C4.43295 4.5 4.43781 4.5 4.44269 4.5C4.44757 4.5 4.45247 4.5 4.45738 4.5C4.4623 4.5 4.46722 4.5 4.47217 4.5C4.47711 4.5 4.48207 4.5 4.48705 4.5C4.49202 4.5 4.49701 4.5 4.50202 4.5C4.50702 4.5 4.51205 4.5 4.51708 4.5C4.52212 4.5 4.52717 4.5 4.53224 4.5C4.53731 4.5 4.54239 4.5 4.54749 4.5C4.55259 4.5 4.5577 4.5 4.56283 4.5C4.56796 4.5 4.57311 4.5 4.57827 4.5C4.58343 4.5 4.5886 4.5 4.59379 4.5C4.59898 4.5 4.60419 4.5 4.60941 4.5C4.61463 4.5 4.61986 4.5 4.62511 4.5C4.63036 4.5 4.63563 4.5 4.64091 4.5C4.64619 4.5 4.65149 4.5 4.6568 4.5C4.66211 4.5 4.66743 4.5 4.67277 4.5C4.67811 4.5 4.68347 4.5 4.68884 4.5C4.69421 4.5 4.69959 4.5 4.70499 4.5C4.71039 4.5 4.7158 4.5 4.72123 4.5C4.72666 4.5 4.7321 4.5 4.73756 4.5C4.74302 4.5 4.74849 4.5 4.75398 4.5C4.75947 4.5 4.76497 4.5 4.77048 4.5C4.776 4.5 4.78153 4.5 4.78708 4.5C4.79262 4.5 4.79818 4.5 4.80375 4.5C4.80933 4.5 4.81492 4.5 4.82052 4.5C4.82612 4.5 4.83174 4.5 4.83737 4.5C4.843 4.5 4.84865 4.5 4.85431 4.5C4.85996 4.5 4.86564 4.5 4.87133 4.5C4.87701 4.5 4.88272 4.5 4.88843 4.5C4.89415 4.5 4.89988 4.5 4.90562 4.5C4.91137 4.5 4.91713 4.5 4.9229 4.5C4.92867 4.5 4.93446 4.5 4.94026 4.5C4.94606 4.5 4.95187 4.5 4.9577 4.5C4.96353 4.5 4.96937 4.5 4.97522 4.5C4.98108 4.5 4.98695 4.5 4.99283 4.5C4.99871 4.5 5.00461 4.5 5.01052 4.5C5.01643 4.5 5.02235 4.5 5.02829 4.5C5.03423 4.5 5.04018 4.5 5.04614 4.5C5.05211 4.5 5.05809 4.5 5.06408 4.5C5.07007 4.5 5.07608 4.5 5.08209 4.5C5.08811 4.5 5.09415 4.5 5.10019 4.5C5.10624 4.5 5.11229 4.5 5.11837 4.5C5.12444 4.5 5.13052 4.5 5.13662 4.5C5.14272 4.5 5.14883 4.5 5.15496 4.5C5.16108 4.5 5.16722 4.5 5.17337 4.5C5.17952 4.5 5.18569 4.5 5.19187 4.5C5.19804 4.5 5.20423 4.5 5.21044 4.5C5.21664 4.5 5.22286 4.5 5.22909 4.5C5.23532 4.5 5.24156 4.5 5.24781 4.5C5.25407 4.5 5.26034 4.5 5.26662 4.5C5.2729 4.5 5.27919 4.5 5.2855 4.5C5.29181 4.5 5.29813 4.5 5.30446 4.5C5.31079 4.5 5.31713 4.5 5.32349 4.5C5.32985 4.5 5.33622 4.5 5.3426 4.5C5.34899 4.5 5.35538 4.5 5.36179 4.5C5.3682 4.5 5.37462 4.5 5.38105 4.5C5.38748 4.5 5.39393 4.5 5.40038 4.5C5.40684 4.5 5.41331 4.5 5.41979 4.5C5.42628 4.5 5.43277 4.5 5.43928 4.5C5.44579 4.5 5.45231 4.5 5.45884 4.5C5.46537 4.5 5.47191 4.5 5.47847 4.5C5.48502 4.5 5.49159 4.5 5.49817 4.5C5.50475 4.5 5.51134 4.5 5.51795 4.5C5.52455 4.5 5.53117 4.5 5.5378 4.5C5.54443 4.5 5.55107 4.5 5.55772 4.5C5.56437 4.5 5.57104 4.5 5.57771 4.5C5.58439 4.5 5.59108 4.5 5.59778 4.5C5.60448 4.5 5.61119 4.5 5.61791 4.5C5.62463 4.5 5.63137 4.5 5.63812 4.5C5.64486 4.5 5.65162 4.5 5.65839 4.5C5.66516 4.5 5.67194 4.5 5.67874 4.5C5.68553 4.5 5.69234 4.5 5.69915 4.5C5.70597 4.5 5.7128 4.5 5.71964 4.5C5.72647 4.5 5.73333 4.5 5.74019 4.5C5.74705 4.5 5.75392 4.5 5.76081 4.5C5.76769 4.5 5.77459 4.5 5.7815 4.5C5.7884 4.5 5.79532 4.5 5.80225 4.5C5.80918 4.5 5.81613 4.5 5.82308 4.5C5.83003 4.5 5.83699 4.5 5.84397 4.5C5.85094 4.5 5.85793 4.5 5.86493 4.5C5.87192 4.5 5.87893 4.5 5.88595 4.5C5.89297 4.5 5.9 4.5 5.90704 4.5C5.91408 4.5 5.92113 4.5 5.92819 4.5C5.93526 4.5 5.94233 4.5 5.94941 4.5C5.9565 4.5 5.96359 4.5 5.9707 4.5C5.9778 4.5 5.98492 4.5 5.99205 4.5C5.99917 4.5 6.00631 4.5 6.01346 4.5C6.02061 4.5 6.02777 4.5 6.03494 4.5C6.04211 4.5 6.04929 4.5 6.05648 4.5C6.06367 4.5 6.07087 4.5 6.07808 4.5C6.08529 4.5 6.09251 4.5 6.09975 4.5C6.10698 4.5 6.11422 4.5 6.12148 4.5C6.12873 4.5 6.13599 4.5 6.14327 4.5C6.15054 4.5 6.15782 4.5 6.16512 4.5C6.17241 4.5 6.17972 4.5 6.18703 4.5C6.19434 4.5 6.20167 4.5 6.209 4.5C6.21634 4.5 6.22368 4.5 6.23104 4.5C6.23839 4.5 6.24576 4.5 6.25313 4.5C6.26051 4.5 6.26789 4.5 6.27529 4.5C6.28268 4.5 6.29009 4.5 6.2975 4.5C6.30491 4.5 6.31234 4.5 6.31977 4.5C6.32721 4.5 6.33465 4.5 6.3421 4.5C6.34956 4.5 6.35702 4.5 6.36449 4.5C6.37197 4.5 6.37945 4.5 6.38694 4.5C6.39443 4.5 6.40194 4.5 6.40945 4.5C6.41696 4.5 6.42448 4.5 6.43201 4.5C6.43954 4.5 6.44708 4.5 6.45463 4.5C6.46218 4.5 6.46974 4.5 6.47731 4.5C6.48487 4.5 6.49245 4.5 6.50004 4.5C6.50762 4.5 6.51522 4.5 6.52283 4.5C6.53043 4.5 6.53805 4.5 6.54567 4.5C6.55329 4.5 6.56093 4.5 6.56857 4.5C6.57621 4.5 6.58386 4.5 6.59152 4.5C6.59918 4.5 6.60685 4.5 6.61453 4.5C6.62221 4.5 6.6299 4.5 6.63759 4.5C6.64529 4.5 6.65299 4.5 6.66071 4.5C6.66842 4.5 6.67614 4.5 6.68388 4.5C6.69161 4.5 6.69935 4.5 6.7071 4.5C6.71485 4.5 6.72261 4.5 6.73037 4.5C6.73814 4.5 6.74592 4.5 6.7537 4.5C6.76148 4.5 6.76928 4.5 6.77708 4.5C6.78488 4.5 6.79269 4.5 6.80051 4.5C6.80833 4.5 6.81616 4.5 6.82399 4.5C6.83183 4.5 6.83967 4.5 6.84752 4.5C6.85538 4.5 6.86324 4.5 6.87111 4.5C6.87898 4.5 6.88685 4.5 6.89474 4.5C6.90263 4.5 6.91052 4.5 6.91842 4.5C6.92632 4.5 6.93424 4.5 6.94215 4.5C6.95007 4.5 6.958 4.5 6.96594 4.5C6.97387 4.5 6.98181 4.5 6.98977 4.5C6.99772 4.5 7.00568 4.5 7.01364 4.5C7.02161 4.5 7.02959 4.5 7.03757 4.5C7.04555 4.5 7.05354 4.5 7.06154 4.5C7.06954 4.5 7.07755 4.5 7.08557 4.5C7.09358 4.5 7.1016 4.5 7.10963 4.5C7.11766 4.5 7.1257 4.5 7.13375 4.5C7.14179 4.5 7.14985 4.5 7.15791 4.5C7.16597 4.5 7.17404 4.5 7.18211 4.5C7.19019 4.5 7.19828 4.5 7.20637 4.5C7.21446 4.5 7.22256 4.5 7.23066 4.5C7.23877 4.5 7.24688 4.5 7.25501 4.5C7.26313 4.5 7.27126 4.5 7.27939 4.5C7.28753 4.5 7.29567 4.5 7.30382 4.5C7.31197 4.5 7.32013 4.5 7.3283 4.5C7.33646 4.5 7.34463 4.5 7.35281 4.5C7.36099 4.5 7.36918 4.5 7.37737 4.5C7.38557 4.5 7.39377 4.5 7.40198 4.5C7.41019 4.5 7.4184 4.5 7.42662 4.5C7.43484 4.5 7.44307 4.5 7.45131 4.5C7.45955 4.5 7.46779 4.5 7.47604 4.5C7.48429 4.5 7.49254 4.5 7.50081 4.5C7.50907 4.5 7.51734 4.5 7.52562 4.5C7.5339 4.5 7.54218 4.5 7.55047 4.5C7.55876 4.5 7.56706 4.5 7.57536 4.5C7.58367 4.5 7.59198 4.5 7.60029 4.5C7.60861 4.5 7.61693 4.5 7.62526 4.5C7.63359 4.5 7.64193 4.5 7.65027 4.5C7.65862 4.5 7.66696 4.5 7.67532 4.5C7.68368 4.5 7.69204 4.5 7.70041 4.5C7.70878 4.5 7.71715 4.5 7.72553 4.5C7.73391 4.5 7.7423 4.5 7.75069 4.5C7.75909 4.5 7.76749 4.5 7.77589 4.5C7.7843 4.5 7.79271 4.5 7.80113 4.5C7.80955 4.5 7.81797 4.5 7.8264 4.5C7.83483 4.5 7.84327 4.5 7.85171 4.5C7.86015 4.5 7.8686 4.5 7.87705 4.5C7.88551 4.5 7.89397 4.5 7.90243 4.5C7.9109 4.5 7.91937 4.5 7.92785 4.5C7.93633 4.5 7.94481 4.5 7.9533 4.5C7.96179 4.5 7.97028 4.5 7.97878 4.5C7.98728 4.5 7.99579 4.5 8.0043 4.5C8.01281 4.5 8.02133 4.5 8.02985 4.5C8.03838 4.5 8.04691 4.5 8.05544 4.5C8.06397 4.5 8.07251 4.5 8.08106 4.5C8.0896 4.5 8.09815 4.5 8.10671 4.5C8.11526 4.5 8.12383 4.5 8.13239 4.5C8.14096 4.5 8.14953 4.5 8.15811 4.5C8.16668 4.5 8.17527 4.5 8.18385 4.5C8.19244 4.5 8.20103 4.5 8.20963 4.5C8.21823 4.5 8.22683 4.5 8.23544 4.5C8.24405 4.5 8.25266 4.5 8.26128 4.5C8.2699 4.5 8.27852 4.5 8.28715 4.5C8.29578 4.5 8.30441 4.5 8.31305 4.5C8.32168 4.5 8.33033 4.5 8.33897 4.5C8.34762 4.5 8.35627 4.5 8.36493 4.5C8.37359 4.5 8.38225 4.5 8.39092 4.5C8.39958 4.5 8.40826 4.5 8.41693 4.5C8.42561 4.5 8.43429 4.5 8.44297 4.5C8.45166 4.5 8.46035 4.5 8.46904 4.5C8.47774 4.5 8.48644 4.5 8.49514 4.5C8.50384 4.5 8.51255 4.5 8.52126 4.5C8.52998 4.5 8.53869 4.5 8.54742 4.5C8.55614 4.5 8.56486 4.5 8.57359 4.5C8.58232 4.5 8.59106 4.5 8.59979 4.5C8.60853 4.5 8.61727 4.5 8.62602 4.5C8.63477 4.5 8.64352 4.5 8.65227 4.5C8.66103 4.5 8.66979 4.5 8.67855 4.5C8.68732 4.5 8.69608 4.5 8.70485 4.5C8.71363 4.5 8.7224 4.5 8.73118 4.5C8.73996 4.5 8.74874 4.5 8.75753 4.5C8.76632 4.5 8.77511 4.5 8.7839 4.5C8.7927 4.5 8.8015 4.5 8.8103 4.5C8.8191 4.5 8.82791 4.5 8.83672 4.5C8.84553 4.5 8.85434 4.5 8.86316 4.5C8.87197 4.5 8.8808 4.5 8.88962 4.5C8.89844 4.5 8.90727 4.5 8.9161 4.5C8.92494 4.5 8.93377 4.5 8.94261 4.5C8.95145 4.5 8.96029 4.5 8.96914 4.5C8.97798 4.5 8.98683 4.5 8.99568 4.5C9.00453 4.5 9.01339 4.5 9.02225 4.5C9.03111 4.5 9.03997 4.5 9.04883 4.5C9.0577 4.5 9.06657 4.5 9.07544 4.5C9.08431 4.5 9.09319 4.5 9.10206 4.5C9.11094 4.5 9.11982 4.5 9.12871 4.5C9.13759 4.5 9.14648 4.5 9.15537 4.5C9.16426 4.5 9.17315 4.5 9.18205 4.5C9.19095 4.5 9.19984 4.5 9.20875 4.5C9.21765 4.5 9.22655 4.5 9.23546 4.5C9.24437 4.5 9.25328 4.5 9.26219 4.5C9.27111 4.5 9.28002 4.5 9.28894 4.5C9.29786 4.5 9.30678 4.5 9.3157 4.5C9.32463 4.5 9.33355 4.5 9.34248 4.5C9.35141 4.5 9.36034 4.5 9.36928 4.5C9.37821 4.5 9.38715 4.5 9.39609 4.5C9.40503 4.5 9.41397 4.5 9.42291 4.5C9.43186 4.5 9.4408 4.5 9.44975 4.5C9.4587 4.5 9.46765 4.5 9.47661 4.5C9.48556 4.5 9.49451 4.5 9.50347 4.5C9.51243 4.5 9.52139 4.5 9.53035 4.5C9.53931 4.5 9.54828 4.5 9.55725 4.5C9.56621 4.5 9.57518 4.5 9.58415 4.5C9.59312 4.5 9.60209 4.5 9.61107 4.5C9.62004 4.5 9.62902 4.5 9.638 4.5C9.64698 4.5 9.65596 4.5 9.66494 4.5C9.67392 4.5 9.68291 4.5 9.69189 4.5C9.70088 4.5 9.70987 4.5 9.71886 4.5C9.72784 4.5 9.73684 4.5 9.74583 4.5C9.75482 4.5 9.76382 4.5 9.77281 4.5C9.78181 4.5 9.79081 4.5 9.79981 4.5C9.8088 4.5 9.81781 4.5 9.82681 4.5C9.83581 4.5 9.84481 4.5 9.85382 4.5C9.86283 4.5 9.87183 4.5 9.88084 4.5C9.88985 4.5 9.89886 4.5 9.90787 4.5C9.91688 4.5 9.92589 4.5 9.93491 4.5C9.94392 4.5 9.95293 4.5 9.96195 4.5C9.97097 4.5 9.97998 4.5 9.989 4.5C9.99802 4.5 10.007 4.5 10.0161 4.5C10.0251 4.5 10.0341 4.5 10.0431 4.5C10.0521 4.5 10.0612 4.5 10.0702 4.5C10.0792 4.5 10.0882 4.5 10.0973 4.5C10.1063 4.5 10.1153 4.5 10.1244 4.5C10.1334 4.5 10.1424 4.5 10.1514 4.5C10.1605 4.5 10.1695 4.5 10.1785 4.5C10.1876 4.5 10.1966 4.5 10.2056 4.5C10.2147 4.5 10.2237 4.5 10.2327 4.5C10.2418 4.5 10.2508 4.5 10.2598 4.5C10.2689 4.5 10.2779 4.5 10.2869 4.5C10.296 4.5 10.305 4.5 10.314 4.5C10.3231 4.5 10.3321 4.5 10.3412 4.5C10.3502 4.5 10.3592 4.5 10.3683 4.5C10.3773 4.5 10.3864 4.5 10.3954 4.5C10.4044 4.5 10.4135 4.5 10.4225 4.5C10.4315 4.5 10.4406 4.5 10.4496 4.5C10.4587 4.5 10.4677 4.5 10.4767 4.5C10.4858 4.5 10.4948 4.5 10.5039 4.5C10.5129 4.5 10.5219 4.5 10.531 4.5C10.54 4.5 10.5491 4.5 10.5581 4.5C10.5671 4.5 10.5762 4.5 10.5852 4.5C10.5943 4.5 10.6033 4.5 10.6123 4.5C10.6214 4.5 10.6304 4.5 10.6395 4.5C10.6485 4.5 10.6575 4.5 10.6666 4.5C10.6756 4.5 10.6847 4.5 10.6937 4.5C10.7027 4.5 10.7118 4.5 10.7208 4.5C10.7298 4.5 10.7389 4.5 10.7479 4.5C10.7569 4.5 10.766 4.5 10.775 4.5C10.784 4.5 10.7931 4.5 10.8021 4.5C10.8111 4.5 10.8202 4.5 10.8292 4.5C10.8382 4.5 10.8473 4.5 10.8563 4.5C10.8653 4.5 10.8744 4.5 10.8834 4.5C10.8924 4.5 10.9015 4.5 10.9105 4.5C10.9195 4.5 10.9285 4.5 10.9376 4.5C10.9466 4.5 10.9556 4.5 10.9646 4.5C10.9737 4.5 10.9827 4.5 10.9917 4.5C11.0007 4.5 11.0097 4.5 11.0188 4.5C11.0278 4.5 11.0368 4.5 11.0458 4.5C11.0548 4.5 11.0638 4.5 11.0729 4.5C11.0819 4.5 11.0909 4.5 11.0999 4.5C11.1089 4.5 11.1179 4.5 11.1269 4.5C11.1359 4.5 11.1449 4.5 11.1539 4.5C11.163 4.5 11.172 4.5 11.181 4.5C11.19 4.5 11.199 4.5 11.208 4.5C11.217 4.5 11.226 4.5 11.235 4.5C11.244 4.5 11.253 4.5 11.262 4.5C11.2709 4.5 11.2799 4.5 11.2889 4.5C11.2979 4.5 11.3069 4.5 11.3159 4.5C11.3249 4.5 11.3339 4.5 11.3428 4.5C11.3518 4.5 11.3608 4.5 11.3698 4.5C11.3788 4.5 11.3878 4.5 11.3967 4.5C11.4057 4.5 11.4147 4.5 11.4236 4.5C11.4326 4.5 11.4416 4.5 11.4506 4.5C11.4595 4.5 11.4685 4.5 11.4775 4.5C11.4864 4.5 11.4954 4.5 11.5043 4.5C11.5133 4.5 11.5223 4.5 11.5312 4.5C11.5402 4.5 11.5491 4.5 11.5581 4.5C11.567 4.5 11.576 4.5 11.5849 4.5C11.5939 4.5 11.6028 4.5 11.6117 4.5C11.6207 4.5 11.6296 4.5 11.6386 4.5C11.6475 4.5 11.6564 4.5 11.6654 4.5C11.6743 4.5 11.6832 4.5 11.6921 4.5C11.7011 4.5 11.71 4.5 11.7189 4.5C11.7278 4.5 11.7367 4.5 11.7457 4.5C11.7546 4.5 11.7635 4.5 11.7724 4.5C11.7813 4.5 11.7902 4.5 11.7991 4.5C11.808 4.5 11.8169 4.5 11.8258 4.5C11.8347 4.5 11.8436 4.5 11.8525 4.5C11.8614 4.5 11.8703 4.5 11.8792 4.5C11.8881 4.5 11.8969 4.5 11.9058 4.5C11.9147 4.5 11.9236 4.5 11.9324 4.5C11.9413 4.5 11.9502 4.5 11.9591 4.5C11.9679 4.5 11.9768 4.5 11.9857 4.5C11.9945 4.5 12.0034 4.5 12.0122 4.5C12.0211 4.5 12.0299 4.5 12.0388 4.5C12.0476 4.5 12.0565 4.5 12.0653 4.5C12.0742 4.5 12.083 4.5 12.0918 4.5C12.1007 4.5 12.1095 4.5 12.1183 4.5C12.1271 4.5 12.136 4.5 12.1448 4.5C12.1536 4.5 12.1624 4.5 12.1712 4.5C12.18 4.5 12.1888 4.5 12.1977 4.5C12.2065 4.5 12.2153 4.5 12.2241 4.5C12.2329 4.5 12.2416 4.5 12.2504 4.5C12.2592 4.5 12.268 4.5 12.2768 4.5C12.2856 4.5 12.2944 4.5 12.3031 4.5C12.3119 4.5 12.3207 4.5 12.3294 4.5C12.3382 4.5 12.347 4.5 12.3557 4.5C12.3645 4.5 12.3732 4.5 12.382 4.5C12.3907 4.5 12.3995 4.5 12.4082 4.5C12.417 4.5 12.4257 4.5 12.4344 4.5C12.4432 4.5 12.4519 4.5 12.4606 4.5C12.4693 4.5 12.4781 4.5 12.4868 4.5C12.4955 4.5 12.5042 4.5 12.5129 4.5C12.5216 4.5 12.5303 4.5 12.539 4.5C12.5477 4.5 12.5564 4.5 12.5651 4.5C12.5738 4.5 12.5825 4.5 12.5911 4.5C12.5998 4.5 12.6085 4.5 12.6172 4.5C12.6258 4.5 12.6345 4.5 12.6432 4.5C12.6518 4.5 12.6605 4.5 12.6691 4.5C12.6778 4.5 12.6864 4.5 12.6951 4.5C12.7037 4.5 12.7123 4.5 12.721 4.5C12.7296 4.5 12.7382 4.5 12.7468 4.5C12.7555 4.5 12.7641 4.5 12.7727 4.5C12.7813 4.5 12.7899 4.5 12.7985 4.5C12.8071 4.5 12.8157 4.5 12.8243 4.5C12.8329 4.5 12.8415 4.5 12.85 4.5C12.8586 4.5 12.8672 4.5 12.8758 4.5C12.8843 4.5 12.8929 4.5 12.9015 4.5C12.91 4.5 12.9186 4.5 12.9271 4.5C12.9357 4.5 12.9442 4.5 12.9528 4.5C12.9613 4.5 12.9698 4.5 12.9784 4.5C12.9869 4.5 12.9954 4.5 13.0039 4.5C13.0124 4.5 13.0209 4.5 13.0294 4.5C13.0379 4.5 13.0464 4.5 13.0549 4.5C13.0634 4.5 13.0719 4.5 13.0804 4.5C13.0889 4.5 13.0974 4.5 13.1058 4.5C13.1143 4.5 13.1228 4.5 13.1312 4.5C13.1397 4.5 13.1481 4.5 13.1566 4.5C13.165 4.5 13.1735 4.5 13.1819 4.5C13.1903 4.5 13.1988 4.5 13.2072 4.5C13.2156 4.5 13.224 4.5 13.2324 4.5C13.2408 4.5 13.2492 4.5 13.2576 4.5C13.266 4.5 13.2744 4.5 13.2828 4.5C13.2912 4.5 13.2996 4.5 13.3079 4.5C13.3163 4.5 13.3247 4.5 13.333 4.5C13.3414 4.5 13.3498 4.5 13.3581 4.5C13.3664 4.5 13.3748 4.5 13.3831 4.5C13.3915 4.5 13.3998 4.5 13.4081 4.5C13.4164 4.5 13.4247 4.5 13.433 4.5C13.4414 4.5 13.4497 4.5 13.4579 4.5C13.4662 4.5 13.4745 4.5 13.4828 4.5C13.4911 4.5 13.4994 4.5 13.5076 4.5C13.5159 4.5 13.5242 4.5 13.5324 4.5C13.5407 4.5 13.5489 4.5 13.5572 4.5C13.5654 4.5 13.5736 4.5 13.5819 4.5C13.5901 4.5 13.5983 4.5 13.6065 4.5C13.6147 4.5 13.6229 4.5 13.6311 4.5C13.6393 4.5 13.6475 4.5 13.6557 4.5C13.6639 4.5 13.6721 4.5 13.6802 4.5C13.6884 4.5 13.6966 4.5 13.7047 4.5C13.7129 4.5 13.721 4.5 13.7292 4.5C13.7373 4.5 13.7454 4.5 13.7536 4.5C13.7617 4.5 13.7698 4.5 13.7779 4.5C13.786 4.5 13.7941 4.5 13.8022 4.5C13.8103 4.5 13.8184 4.5 13.8265 4.5C13.8346 4.5 13.8427 4.5 13.8507 4.5C13.8588 4.5 13.8668 4.5 13.8749 4.5C13.8829 4.5 13.891 4.5 13.899 4.5C13.9071 4.5 13.9151 4.5 13.9231 4.5C13.9311 4.5 13.9391 4.5 13.9471 4.5C13.9551 4.5 13.9631 4.5 13.9711 4.5C13.9791 4.5 13.9871 4.5 13.9951 4.5C14.003 4.5 14.011 4.5 14.019 4.5C14.0269 4.5 14.0349 4.5 14.0428 4.5C14.0507 4.5 14.0587 4.5 14.0666 4.5C14.0745 4.5 14.0824 4.5 14.0903 4.5C14.0983 4.5 14.1062 4.5 14.114 4.5C14.1219 4.5 14.1298 4.5 14.1377 4.5C14.1456 4.5 14.1534 4.5 14.1613 4.5C14.1691 4.5 14.177 4.5 14.1848 4.5C14.1927 4.5 14.2005 4.5 14.2083 4.5C14.2162 4.5 14.224 4.5 14.2318 4.5C14.2396 4.5 14.2474 4.5 14.2552 4.5C14.263 4.5 14.2707 4.5 14.2785 4.5C14.2863 4.5 14.2941 4.5 14.3018 4.5C14.3096 4.5 14.3173 4.5 14.325 4.5C14.3328 4.5 14.3405 4.5 14.3482 4.5C14.356 4.5 14.3637 4.5 14.3714 4.5C14.3791 4.5 14.3868 4.5 14.3944 4.5C14.4021 4.5 14.4098 4.5 14.4175 4.5C14.4251 4.5 14.4328 4.5 14.4404 4.5C14.4481 4.5 14.4557 4.5 14.4634 4.5C14.471 4.5 14.4786 4.5 14.4862 4.5C14.4938 4.5 14.5014 4.5 14.509 4.5C14.5166 4.5 14.5242 4.5 14.5318 4.5C14.5393 4.5 14.5469 4.5 14.5545 4.5C14.562 4.5 14.5696 4.5 14.5771 4.5C14.5846 4.5 14.5922 4.5 14.5997 4.5C14.6072 4.5 14.6147 4.5 14.6222 4.5C14.6297 4.5 14.6372 4.5 14.6447 4.5C14.6521 4.5 14.6596 4.5 14.6671 4.5C14.6745 4.5 14.682 4.5 14.6894 4.5C14.6969 4.5 14.7043 4.5 14.7117 4.5C14.7191 4.5 14.7265 4.5 14.7339 4.5C14.7413 4.5 14.7487 4.5 14.7561 4.5C14.7635 4.5 14.7709 4.5 14.7782 4.5C14.7856 4.5 14.7929 4.5 14.8003 4.5C14.8076 4.5 14.815 4.5 14.8223 4.5C14.8296 4.5 14.8369 4.5 14.8442 4.5C14.8515 4.5 14.8588 4.5 14.8661 4.5C14.8734 4.5 14.8806 4.5 14.8879 4.5C14.8951 4.5 14.9024 4.5 14.9096 4.5C14.9169 4.5 14.9241 4.5 14.9313 4.5C14.9385 4.5 14.9457 4.5 14.9529 4.5C14.9601 4.5 14.9673 4.5 14.9745 4.5C14.9817 4.5 14.9888 4.5 14.996 4.5C15.0031 4.5 15.0103 4.5 15.0174 4.5C15.0246 4.5 15.0317 4.5 15.0388 4.5C15.0459 4.5 15.053 4.5 15.0601 4.5C15.0672 4.5 15.0743 4.5 15.0813 4.5C15.0884 4.5 15.0955 4.5 15.1025 4.5C15.1096 4.5 15.1166 4.5 15.1236 4.5C15.1306 4.5 15.1377 4.5 15.1447 4.5C15.1517 4.5 15.1587 4.5 15.1656 4.5C15.1726 4.5 15.1796 4.5 15.1866 4.5C15.1935 4.5 15.2005 4.5 15.2074 4.5C15.2143 4.5 15.2213 4.5 15.2282 4.5C15.2351 4.5 15.242 4.5 15.2489 4.5C15.2558 4.5 15.2627 4.5 15.2695 4.5C15.2764 4.5 15.2833 4.5 15.2901 4.5C15.2969 4.5 15.3038 4.5 15.3106 4.5C15.3174 4.5 15.3242 4.5 15.331 4.5C15.3378 4.5 15.3446 4.5 15.3514 4.5C15.3582 4.5 15.3649 4.5 15.3717 4.5C15.3785 4.5 15.3852 4.5 15.3919 4.5C15.3987 4.5 15.4054 4.5 15.4121 4.5C15.4188 4.5 15.4255 4.5 15.4322 4.5C15.4389 4.5 15.4455 4.5 15.4522 4.5C15.4588 4.5 15.4655 4.5 15.4721 4.5C15.4788 4.5 15.4854 4.5 15.492 4.5C15.4986 4.5 15.5052 4.5 15.5118 4.5C15.5184 4.5 15.525 4.5 15.5315 4.5C15.5381 4.5 15.5446 4.5 15.5512 4.5C15.5577 4.5 15.5642 4.5 15.5708 4.5C15.5773 4.5 15.5838 4.5 15.5903 4.5C15.5968 4.5 15.6032 4.5 15.6097 4.5C15.6162 4.5 15.6226 4.5 15.6291 4.5C15.6355 4.5 15.6419 4.5 15.6483 4.5C15.6548 4.5 15.6612 4.5 15.6675 4.5C15.6739 4.5 15.6803 4.5 15.6867 4.5C15.693 4.5 15.6994 4.5 15.7057 4.5C15.7121 4.5 15.7184 4.5 15.7247 4.5C15.731 4.5 15.7373 4.5 15.7436 4.5C15.7499 4.5 15.7562 4.5 15.7625 4.5C15.7687 4.5 15.775 4.5 15.7812 4.5C15.7874 4.5 15.7937 4.5 15.7999 4.5C15.8061 4.5 15.8123 4.5 15.8185 4.5C15.8247 4.5 15.8308 4.5 15.837 4.5C15.8431 4.5 15.8493 4.5 15.8554 4.5C15.8616 4.5 15.8677 4.5 15.8738 4.5C15.8799 4.5 15.886 4.5 15.8921 4.5C15.8981 4.5 15.9042 4.5 15.9103 4.5C15.9163 4.5 15.9224 4.5 15.9284 4.5C15.9344 4.5 15.9404 4.5 15.9464 4.5C15.9524 4.5 15.9584 4.5 15.9644 4.5C15.9704 4.5 15.9763 4.5 15.9823 4.5C15.9882 4.5 15.9941 4.5 16.0001 4.5V3.5C15.9941 3.5 15.9882 3.5 15.9823 3.5C15.9763 3.5 15.9704 3.5 15.9644 3.5C15.9584 3.5 15.9524 3.5 15.9464 3.5C15.9404 3.5 15.9344 3.5 15.9284 3.5C15.9224 3.5 15.9163 3.5 15.9103 3.5C15.9042 3.5 15.8981 3.5 15.8921 3.5C15.886 3.5 15.8799 3.5 15.8738 3.5C15.8677 3.5 15.8616 3.5 15.8554 3.5C15.8493 3.5 15.8431 3.5 15.837 3.5C15.8308 3.5 15.8247 3.5 15.8185 3.5C15.8123 3.5 15.8061 3.5 15.7999 3.5C15.7937 3.5 15.7874 3.5 15.7812 3.5C15.775 3.5 15.7687 3.5 15.7625 3.5C15.7562 3.5 15.7499 3.5 15.7436 3.5C15.7373 3.5 15.731 3.5 15.7247 3.5C15.7184 3.5 15.7121 3.5 15.7057 3.5C15.6994 3.5 15.693 3.5 15.6867 3.5C15.6803 3.5 15.6739 3.5 15.6675 3.5C15.6612 3.5 15.6548 3.5 15.6483 3.5C15.6419 3.5 15.6355 3.5 15.6291 3.5C15.6226 3.5 15.6162 3.5 15.6097 3.5C15.6032 3.5 15.5968 3.5 15.5903 3.5C15.5838 3.5 15.5773 3.5 15.5708 3.5C15.5642 3.5 15.5577 3.5 15.5512 3.5C15.5446 3.5 15.5381 3.5 15.5315 3.5C15.525 3.5 15.5184 3.5 15.5118 3.5C15.5052 3.5 15.4986 3.5 15.492 3.5C15.4854 3.5 15.4788 3.5 15.4721 3.5C15.4655 3.5 15.4588 3.5 15.4522 3.5C15.4455 3.5 15.4389 3.5 15.4322 3.5C15.4255 3.5 15.4188 3.5 15.4121 3.5C15.4054 3.5 15.3987 3.5 15.3919 3.5C15.3852 3.5 15.3785 3.5 15.3717 3.5C15.3649 3.5 15.3582 3.5 15.3514 3.5C15.3446 3.5 15.3378 3.5 15.331 3.5C15.3242 3.5 15.3174 3.5 15.3106 3.5C15.3038 3.5 15.2969 3.5 15.2901 3.5C15.2833 3.5 15.2764 3.5 15.2695 3.5C15.2627 3.5 15.2558 3.5 15.2489 3.5C15.242 3.5 15.2351 3.5 15.2282 3.5C15.2213 3.5 15.2143 3.5 15.2074 3.5C15.2005 3.5 15.1935 3.5 15.1866 3.5C15.1796 3.5 15.1726 3.5 15.1656 3.5C15.1587 3.5 15.1517 3.5 15.1447 3.5C15.1377 3.5 15.1306 3.5 15.1236 3.5C15.1166 3.5 15.1096 3.5 15.1025 3.5C15.0955 3.5 15.0884 3.5 15.0813 3.5C15.0743 3.5 15.0672 3.5 15.0601 3.5C15.053 3.5 15.0459 3.5 15.0388 3.5C15.0317 3.5 15.0246 3.5 15.0174 3.5C15.0103 3.5 15.0031 3.5 14.996 3.5C14.9888 3.5 14.9817 3.5 14.9745 3.5C14.9673 3.5 14.9601 3.5 14.9529 3.5C14.9457 3.5 14.9385 3.5 14.9313 3.5C14.9241 3.5 14.9169 3.5 14.9096 3.5C14.9024 3.5 14.8951 3.5 14.8879 3.5C14.8806 3.5 14.8734 3.5 14.8661 3.5C14.8588 3.5 14.8515 3.5 14.8442 3.5C14.8369 3.5 14.8296 3.5 14.8223 3.5C14.815 3.5 14.8076 3.5 14.8003 3.5C14.7929 3.5 14.7856 3.5 14.7782 3.5C14.7709 3.5 14.7635 3.5 14.7561 3.5C14.7487 3.5 14.7413 3.5 14.7339 3.5C14.7265 3.5 14.7191 3.5 14.7117 3.5C14.7043 3.5 14.6969 3.5 14.6894 3.5C14.682 3.5 14.6745 3.5 14.6671 3.5C14.6596 3.5 14.6521 3.5 14.6447 3.5C14.6372 3.5 14.6297 3.5 14.6222 3.5C14.6147 3.5 14.6072 3.5 14.5997 3.5C14.5922 3.5 14.5846 3.5 14.5771 3.5C14.5696 3.5 14.562 3.5 14.5545 3.5C14.5469 3.5 14.5393 3.5 14.5318 3.5C14.5242 3.5 14.5166 3.5 14.509 3.5C14.5014 3.5 14.4938 3.5 14.4862 3.5C14.4786 3.5 14.471 3.5 14.4634 3.5C14.4557 3.5 14.4481 3.5 14.4404 3.5C14.4328 3.5 14.4251 3.5 14.4175 3.5C14.4098 3.5 14.4021 3.5 14.3944 3.5C14.3868 3.5 14.3791 3.5 14.3714 3.5C14.3637 3.5 14.356 3.5 14.3482 3.5C14.3405 3.5 14.3328 3.5 14.325 3.5C14.3173 3.5 14.3096 3.5 14.3018 3.5C14.2941 3.5 14.2863 3.5 14.2785 3.5C14.2707 3.5 14.263 3.5 14.2552 3.5C14.2474 3.5 14.2396 3.5 14.2318 3.5C14.224 3.5 14.2162 3.5 14.2083 3.5C14.2005 3.5 14.1927 3.5 14.1848 3.5C14.177 3.5 14.1691 3.5 14.1613 3.5C14.1534 3.5 14.1456 3.5 14.1377 3.5C14.1298 3.5 14.1219 3.5 14.114 3.5C14.1062 3.5 14.0983 3.5 14.0903 3.5C14.0824 3.5 14.0745 3.5 14.0666 3.5C14.0587 3.5 14.0507 3.5 14.0428 3.5C14.0349 3.5 14.0269 3.5 14.019 3.5C14.011 3.5 14.003 3.5 13.9951 3.5C13.9871 3.5 13.9791 3.5 13.9711 3.5C13.9631 3.5 13.9551 3.5 13.9471 3.5C13.9391 3.5 13.9311 3.5 13.9231 3.5C13.9151 3.5 13.9071 3.5 13.899 3.5C13.891 3.5 13.8829 3.5 13.8749 3.5C13.8668 3.5 13.8588 3.5 13.8507 3.5C13.8427 3.5 13.8346 3.5 13.8265 3.5C13.8184 3.5 13.8103 3.5 13.8022 3.5C13.7941 3.5 13.786 3.5 13.7779 3.5C13.7698 3.5 13.7617 3.5 13.7536 3.5C13.7454 3.5 13.7373 3.5 13.7292 3.5C13.721 3.5 13.7129 3.5 13.7047 3.5C13.6966 3.5 13.6884 3.5 13.6802 3.5C13.6721 3.5 13.6639 3.5 13.6557 3.5C13.6475 3.5 13.6393 3.5 13.6311 3.5C13.6229 3.5 13.6147 3.5 13.6065 3.5C13.5983 3.5 13.5901 3.5 13.5819 3.5C13.5736 3.5 13.5654 3.5 13.5572 3.5C13.5489 3.5 13.5407 3.5 13.5324 3.5C13.5242 3.5 13.5159 3.5 13.5076 3.5C13.4994 3.5 13.4911 3.5 13.4828 3.5C13.4745 3.5 13.4662 3.5 13.4579 3.5C13.4497 3.5 13.4414 3.5 13.433 3.5C13.4247 3.5 13.4164 3.5 13.4081 3.5C13.3998 3.5 13.3915 3.5 13.3831 3.5C13.3748 3.5 13.3664 3.5 13.3581 3.5C13.3498 3.5 13.3414 3.5 13.333 3.5C13.3247 3.5 13.3163 3.5 13.3079 3.5C13.2996 3.5 13.2912 3.5 13.2828 3.5C13.2744 3.5 13.266 3.5 13.2576 3.5C13.2492 3.5 13.2408 3.5 13.2324 3.5C13.224 3.5 13.2156 3.5 13.2072 3.5C13.1988 3.5 13.1903 3.5 13.1819 3.5C13.1735 3.5 13.165 3.5 13.1566 3.5C13.1481 3.5 13.1397 3.5 13.1312 3.5C13.1228 3.5 13.1143 3.5 13.1058 3.5C13.0974 3.5 13.0889 3.5 13.0804 3.5C13.0719 3.5 13.0634 3.5 13.0549 3.5C13.0464 3.5 13.0379 3.5 13.0294 3.5C13.0209 3.5 13.0124 3.5 13.0039 3.5C12.9954 3.5 12.9869 3.5 12.9784 3.5C12.9698 3.5 12.9613 3.5 12.9528 3.5C12.9442 3.5 12.9357 3.5 12.9271 3.5C12.9186 3.5 12.91 3.5 12.9015 3.5C12.8929 3.5 12.8843 3.5 12.8758 3.5C12.8672 3.5 12.8586 3.5 12.85 3.5C12.8415 3.5 12.8329 3.5 12.8243 3.5C12.8157 3.5 12.8071 3.5 12.7985 3.5C12.7899 3.5 12.7813 3.5 12.7727 3.5C12.7641 3.5 12.7555 3.5 12.7468 3.5C12.7382 3.5 12.7296 3.5 12.721 3.5C12.7123 3.5 12.7037 3.5 12.6951 3.5C12.6864 3.5 12.6778 3.5 12.6691 3.5C12.6605 3.5 12.6518 3.5 12.6432 3.5C12.6345 3.5 12.6258 3.5 12.6172 3.5C12.6085 3.5 12.5998 3.5 12.5911 3.5C12.5825 3.5 12.5738 3.5 12.5651 3.5C12.5564 3.5 12.5477 3.5 12.539 3.5C12.5303 3.5 12.5216 3.5 12.5129 3.5C12.5042 3.5 12.4955 3.5 12.4868 3.5C12.4781 3.5 12.4693 3.5 12.4606 3.5C12.4519 3.5 12.4432 3.5 12.4344 3.5C12.4257 3.5 12.417 3.5 12.4082 3.5C12.3995 3.5 12.3907 3.5 12.382 3.5C12.3732 3.5 12.3645 3.5 12.3557 3.5C12.347 3.5 12.3382 3.5 12.3294 3.5C12.3207 3.5 12.3119 3.5 12.3031 3.5C12.2944 3.5 12.2856 3.5 12.2768 3.5C12.268 3.5 12.2592 3.5 12.2504 3.5C12.2416 3.5 12.2329 3.5 12.2241 3.5C12.2153 3.5 12.2065 3.5 12.1977 3.5C12.1888 3.5 12.18 3.5 12.1712 3.5C12.1624 3.5 12.1536 3.5 12.1448 3.5C12.136 3.5 12.1271 3.5 12.1183 3.5C12.1095 3.5 12.1007 3.5 12.0918 3.5C12.083 3.5 12.0742 3.5 12.0653 3.5C12.0565 3.5 12.0476 3.5 12.0388 3.5C12.0299 3.5 12.0211 3.5 12.0122 3.5C12.0034 3.5 11.9945 3.5 11.9857 3.5C11.9768 3.5 11.9679 3.5 11.9591 3.5C11.9502 3.5 11.9413 3.5 11.9324 3.5C11.9236 3.5 11.9147 3.5 11.9058 3.5C11.8969 3.5 11.8881 3.5 11.8792 3.5C11.8703 3.5 11.8614 3.5 11.8525 3.5C11.8436 3.5 11.8347 3.5 11.8258 3.5C11.8169 3.5 11.808 3.5 11.7991 3.5C11.7902 3.5 11.7813 3.5 11.7724 3.5C11.7635 3.5 11.7546 3.5 11.7457 3.5C11.7367 3.5 11.7278 3.5 11.7189 3.5C11.71 3.5 11.7011 3.5 11.6921 3.5C11.6832 3.5 11.6743 3.5 11.6654 3.5C11.6564 3.5 11.6475 3.5 11.6386 3.5C11.6296 3.5 11.6207 3.5 11.6117 3.5C11.6028 3.5 11.5939 3.5 11.5849 3.5C11.576 3.5 11.567 3.5 11.5581 3.5C11.5491 3.5 11.5402 3.5 11.5312 3.5C11.5223 3.5 11.5133 3.5 11.5043 3.5C11.4954 3.5 11.4864 3.5 11.4775 3.5C11.4685 3.5 11.4595 3.5 11.4506 3.5C11.4416 3.5 11.4326 3.5 11.4236 3.5C11.4147 3.5 11.4057 3.5 11.3967 3.5C11.3878 3.5 11.3788 3.5 11.3698 3.5C11.3608 3.5 11.3518 3.5 11.3428 3.5C11.3339 3.5 11.3249 3.5 11.3159 3.5C11.3069 3.5 11.2979 3.5 11.2889 3.5C11.2799 3.5 11.2709 3.5 11.262 3.5C11.253 3.5 11.244 3.5 11.235 3.5C11.226 3.5 11.217 3.5 11.208 3.5C11.199 3.5 11.19 3.5 11.181 3.5C11.172 3.5 11.163 3.5 11.1539 3.5C11.1449 3.5 11.1359 3.5 11.1269 3.5C11.1179 3.5 11.1089 3.5 11.0999 3.5C11.0909 3.5 11.0819 3.5 11.0729 3.5C11.0638 3.5 11.0548 3.5 11.0458 3.5C11.0368 3.5 11.0278 3.5 11.0188 3.5C11.0097 3.5 11.0007 3.5 10.9917 3.5C10.9827 3.5 10.9737 3.5 10.9646 3.5C10.9556 3.5 10.9466 3.5 10.9376 3.5C10.9285 3.5 10.9195 3.5 10.9105 3.5C10.9015 3.5 10.8924 3.5 10.8834 3.5C10.8744 3.5 10.8653 3.5 10.8563 3.5C10.8473 3.5 10.8382 3.5 10.8292 3.5C10.8202 3.5 10.8111 3.5 10.8021 3.5C10.7931 3.5 10.784 3.5 10.775 3.5C10.766 3.5 10.7569 3.5 10.7479 3.5C10.7389 3.5 10.7298 3.5 10.7208 3.5C10.7118 3.5 10.7027 3.5 10.6937 3.5C10.6847 3.5 10.6756 3.5 10.6666 3.5C10.6575 3.5 10.6485 3.5 10.6395 3.5C10.6304 3.5 10.6214 3.5 10.6123 3.5C10.6033 3.5 10.5943 3.5 10.5852 3.5C10.5762 3.5 10.5671 3.5 10.5581 3.5C10.5491 3.5 10.54 3.5 10.531 3.5C10.5219 3.5 10.5129 3.5 10.5039 3.5C10.4948 3.5 10.4858 3.5 10.4767 3.5C10.4677 3.5 10.4587 3.5 10.4496 3.5C10.4406 3.5 10.4315 3.5 10.4225 3.5C10.4135 3.5 10.4044 3.5 10.3954 3.5C10.3864 3.5 10.3773 3.5 10.3683 3.5C10.3592 3.5 10.3502 3.5 10.3412 3.5C10.3321 3.5 10.3231 3.5 10.314 3.5C10.305 3.5 10.296 3.5 10.2869 3.5C10.2779 3.5 10.2689 3.5 10.2598 3.5C10.2508 3.5 10.2418 3.5 10.2327 3.5C10.2237 3.5 10.2147 3.5 10.2056 3.5C10.1966 3.5 10.1876 3.5 10.1785 3.5C10.1695 3.5 10.1605 3.5 10.1514 3.5C10.1424 3.5 10.1334 3.5 10.1244 3.5C10.1153 3.5 10.1063 3.5 10.0973 3.5C10.0882 3.5 10.0792 3.5 10.0702 3.5C10.0612 3.5 10.0521 3.5 10.0431 3.5C10.0341 3.5 10.0251 3.5 10.0161 3.5C10.007 3.5 9.99802 3.5 9.989 3.5C9.97998 3.5 9.97097 3.5 9.96195 3.5C9.95293 3.5 9.94392 3.5 9.93491 3.5C9.92589 3.5 9.91688 3.5 9.90787 3.5C9.89886 3.5 9.88985 3.5 9.88084 3.5C9.87183 3.5 9.86283 3.5 9.85382 3.5C9.84481 3.5 9.83581 3.5 9.82681 3.5C9.81781 3.5 9.8088 3.5 9.79981 3.5C9.79081 3.5 9.78181 3.5 9.77281 3.5C9.76382 3.5 9.75482 3.5 9.74583 3.5C9.73684 3.5 9.72784 3.5 9.71886 3.5C9.70987 3.5 9.70088 3.5 9.69189 3.5C9.68291 3.5 9.67392 3.5 9.66494 3.5C9.65596 3.5 9.64698 3.5 9.638 3.5C9.62902 3.5 9.62004 3.5 9.61107 3.5C9.60209 3.5 9.59312 3.5 9.58415 3.5C9.57518 3.5 9.56621 3.5 9.55725 3.5C9.54828 3.5 9.53931 3.5 9.53035 3.5C9.52139 3.5 9.51243 3.5 9.50347 3.5C9.49451 3.5 9.48556 3.5 9.47661 3.5C9.46765 3.5 9.4587 3.5 9.44975 3.5C9.4408 3.5 9.43186 3.5 9.42291 3.5C9.41397 3.5 9.40503 3.5 9.39609 3.5C9.38715 3.5 9.37821 3.5 9.36928 3.5C9.36034 3.5 9.35141 3.5 9.34248 3.5C9.33355 3.5 9.32463 3.5 9.3157 3.5C9.30678 3.5 9.29786 3.5 9.28894 3.5C9.28002 3.5 9.27111 3.5 9.26219 3.5C9.25328 3.5 9.24437 3.5 9.23546 3.5C9.22655 3.5 9.21765 3.5 9.20875 3.5C9.19984 3.5 9.19095 3.5 9.18205 3.5C9.17315 3.5 9.16426 3.5 9.15537 3.5C9.14648 3.5 9.13759 3.5 9.12871 3.5C9.11982 3.5 9.11094 3.5 9.10206 3.5C9.09319 3.5 9.08431 3.5 9.07544 3.5C9.06657 3.5 9.0577 3.5 9.04883 3.5C9.03997 3.5 9.03111 3.5 9.02225 3.5C9.01339 3.5 9.00453 3.5 8.99568 3.5C8.98683 3.5 8.97798 3.5 8.96914 3.5C8.96029 3.5 8.95145 3.5 8.94261 3.5C8.93377 3.5 8.92494 3.5 8.9161 3.5C8.90727 3.5 8.89844 3.5 8.88962 3.5C8.8808 3.5 8.87197 3.5 8.86316 3.5C8.85434 3.5 8.84553 3.5 8.83672 3.5C8.82791 3.5 8.8191 3.5 8.8103 3.5C8.8015 3.5 8.7927 3.5 8.7839 3.5C8.77511 3.5 8.76632 3.5 8.75753 3.5C8.74874 3.5 8.73996 3.5 8.73118 3.5C8.7224 3.5 8.71363 3.5 8.70485 3.5C8.69608 3.5 8.68732 3.5 8.67855 3.5C8.66979 3.5 8.66103 3.5 8.65227 3.5C8.64352 3.5 8.63477 3.5 8.62602 3.5C8.61727 3.5 8.60853 3.5 8.59979 3.5C8.59106 3.5 8.58232 3.5 8.57359 3.5C8.56486 3.5 8.55614 3.5 8.54742 3.5C8.53869 3.5 8.52998 3.5 8.52126 3.5C8.51255 3.5 8.50384 3.5 8.49514 3.5C8.48644 3.5 8.47774 3.5 8.46904 3.5C8.46035 3.5 8.45166 3.5 8.44297 3.5C8.43429 3.5 8.42561 3.5 8.41693 3.5C8.40826 3.5 8.39958 3.5 8.39092 3.5C8.38225 3.5 8.37359 3.5 8.36493 3.5C8.35627 3.5 8.34762 3.5 8.33897 3.5C8.33033 3.5 8.32168 3.5 8.31305 3.5C8.30441 3.5 8.29578 3.5 8.28715 3.5C8.27852 3.5 8.2699 3.5 8.26128 3.5C8.25266 3.5 8.24405 3.5 8.23544 3.5C8.22683 3.5 8.21823 3.5 8.20963 3.5C8.20103 3.5 8.19244 3.5 8.18385 3.5C8.17527 3.5 8.16668 3.5 8.15811 3.5C8.14953 3.5 8.14096 3.5 8.13239 3.5C8.12383 3.5 8.11526 3.5 8.10671 3.5C8.09815 3.5 8.0896 3.5 8.08106 3.5C8.07251 3.5 8.06397 3.5 8.05544 3.5C8.04691 3.5 8.03838 3.5 8.02985 3.5C8.02133 3.5 8.01281 3.5 8.0043 3.5C7.99579 3.5 7.98728 3.5 7.97878 3.5C7.97028 3.5 7.96179 3.5 7.9533 3.5C7.94481 3.5 7.93633 3.5 7.92785 3.5C7.91937 3.5 7.9109 3.5 7.90243 3.5C7.89397 3.5 7.88551 3.5 7.87705 3.5C7.8686 3.5 7.86015 3.5 7.85171 3.5C7.84327 3.5 7.83483 3.5 7.8264 3.5C7.81797 3.5 7.80955 3.5 7.80113 3.5C7.79271 3.5 7.7843 3.5 7.77589 3.5C7.76749 3.5 7.75909 3.5 7.75069 3.5C7.7423 3.5 7.73391 3.5 7.72553 3.5C7.71715 3.5 7.70878 3.5 7.70041 3.5C7.69204 3.5 7.68368 3.5 7.67532 3.5C7.66696 3.5 7.65862 3.5 7.65027 3.5C7.64193 3.5 7.63359 3.5 7.62526 3.5C7.61693 3.5 7.60861 3.5 7.60029 3.5C7.59198 3.5 7.58367 3.5 7.57536 3.5C7.56706 3.5 7.55876 3.5 7.55047 3.5C7.54218 3.5 7.5339 3.5 7.52562 3.5C7.51734 3.5 7.50907 3.5 7.50081 3.5C7.49254 3.5 7.48429 3.5 7.47604 3.5C7.46779 3.5 7.45955 3.5 7.45131 3.5C7.44307 3.5 7.43484 3.5 7.42662 3.5C7.4184 3.5 7.41019 3.5 7.40198 3.5C7.39377 3.5 7.38557 3.5 7.37737 3.5C7.36918 3.5 7.36099 3.5 7.35281 3.5C7.34463 3.5 7.33646 3.5 7.3283 3.5C7.32013 3.5 7.31197 3.5 7.30382 3.5C7.29567 3.5 7.28753 3.5 7.27939 3.5C7.27126 3.5 7.26313 3.5 7.25501 3.5C7.24688 3.5 7.23877 3.5 7.23066 3.5C7.22256 3.5 7.21446 3.5 7.20637 3.5C7.19828 3.5 7.19019 3.5 7.18211 3.5C7.17404 3.5 7.16597 3.5 7.15791 3.5C7.14985 3.5 7.14179 3.5 7.13375 3.5C7.1257 3.5 7.11766 3.5 7.10963 3.5C7.1016 3.5 7.09358 3.5 7.08557 3.5C7.07755 3.5 7.06954 3.5 7.06154 3.5C7.05354 3.5 7.04555 3.5 7.03757 3.5C7.02959 3.5 7.02161 3.5 7.01364 3.5C7.00568 3.5 6.99772 3.5 6.98977 3.5C6.98181 3.5 6.97387 3.5 6.96594 3.5C6.958 3.5 6.95007 3.5 6.94215 3.5C6.93424 3.5 6.92632 3.5 6.91842 3.5C6.91052 3.5 6.90263 3.5 6.89474 3.5C6.88685 3.5 6.87898 3.5 6.87111 3.5C6.86324 3.5 6.85538 3.5 6.84752 3.5C6.83967 3.5 6.83183 3.5 6.82399 3.5C6.81616 3.5 6.80833 3.5 6.80051 3.5C6.79269 3.5 6.78488 3.5 6.77708 3.5C6.76928 3.5 6.76148 3.5 6.7537 3.5C6.74592 3.5 6.73814 3.5 6.73037 3.5C6.72261 3.5 6.71485 3.5 6.7071 3.5C6.69935 3.5 6.69161 3.5 6.68388 3.5C6.67614 3.5 6.66842 3.5 6.66071 3.5C6.65299 3.5 6.64529 3.5 6.63759 3.5C6.6299 3.5 6.62221 3.5 6.61453 3.5C6.60685 3.5 6.59918 3.5 6.59152 3.5C6.58386 3.5 6.57621 3.5 6.56857 3.5C6.56093 3.5 6.55329 3.5 6.54567 3.5C6.53805 3.5 6.53043 3.5 6.52283 3.5C6.51522 3.5 6.50762 3.5 6.50004 3.5C6.49245 3.5 6.48487 3.5 6.47731 3.5C6.46974 3.5 6.46218 3.5 6.45463 3.5C6.44708 3.5 6.43954 3.5 6.43201 3.5C6.42448 3.5 6.41696 3.5 6.40945 3.5C6.40194 3.5 6.39443 3.5 6.38694 3.5C6.37945 3.5 6.37197 3.5 6.36449 3.5C6.35702 3.5 6.34956 3.5 6.3421 3.5C6.33465 3.5 6.32721 3.5 6.31977 3.5C6.31234 3.5 6.30491 3.5 6.2975 3.5C6.29009 3.5 6.28268 3.5 6.27529 3.5C6.26789 3.5 6.26051 3.5 6.25313 3.5C6.24576 3.5 6.23839 3.5 6.23104 3.5C6.22368 3.5 6.21634 3.5 6.209 3.5C6.20167 3.5 6.19434 3.5 6.18703 3.5C6.17972 3.5 6.17241 3.5 6.16512 3.5C6.15782 3.5 6.15054 3.5 6.14327 3.5C6.13599 3.5 6.12873 3.5 6.12148 3.5C6.11422 3.5 6.10698 3.5 6.09975 3.5C6.09251 3.5 6.08529 3.5 6.07808 3.5C6.07087 3.5 6.06367 3.5 6.05648 3.5C6.04929 3.5 6.04211 3.5 6.03494 3.5C6.02777 3.5 6.02061 3.5 6.01346 3.5C6.00631 3.5 5.99917 3.5 5.99205 3.5C5.98492 3.5 5.9778 3.5 5.9707 3.5C5.96359 3.5 5.9565 3.5 5.94941 3.5C5.94233 3.5 5.93526 3.5 5.92819 3.5C5.92113 3.5 5.91408 3.5 5.90704 3.5C5.9 3.5 5.89297 3.5 5.88595 3.5C5.87893 3.5 5.87192 3.5 5.86493 3.5C5.85793 3.5 5.85094 3.5 5.84397 3.5C5.83699 3.5 5.83003 3.5 5.82308 3.5C5.81613 3.5 5.80918 3.5 5.80225 3.5C5.79532 3.5 5.7884 3.5 5.7815 3.5C5.77459 3.5 5.76769 3.5 5.76081 3.5C5.75392 3.5 5.74705 3.5 5.74019 3.5C5.73333 3.5 5.72647 3.5 5.71964 3.5C5.7128 3.5 5.70597 3.5 5.69915 3.5C5.69234 3.5 5.68553 3.5 5.67874 3.5C5.67194 3.5 5.66516 3.5 5.65839 3.5C5.65162 3.5 5.64486 3.5 5.63812 3.5C5.63137 3.5 5.62463 3.5 5.61791 3.5C5.61119 3.5 5.60448 3.5 5.59778 3.5C5.59108 3.5 5.58439 3.5 5.57771 3.5C5.57104 3.5 5.56437 3.5 5.55772 3.5C5.55107 3.5 5.54443 3.5 5.5378 3.5C5.53117 3.5 5.52455 3.5 5.51795 3.5C5.51134 3.5 5.50475 3.5 5.49817 3.5C5.49159 3.5 5.48502 3.5 5.47847 3.5C5.47191 3.5 5.46537 3.5 5.45884 3.5C5.45231 3.5 5.44579 3.5 5.43928 3.5C5.43277 3.5 5.42628 3.5 5.41979 3.5C5.41331 3.5 5.40684 3.5 5.40038 3.5C5.39393 3.5 5.38748 3.5 5.38105 3.5C5.37462 3.5 5.3682 3.5 5.36179 3.5C5.35538 3.5 5.34899 3.5 5.3426 3.5C5.33622 3.5 5.32985 3.5 5.32349 3.5C5.31713 3.5 5.31079 3.5 5.30446 3.5C5.29813 3.5 5.29181 3.5 5.2855 3.5C5.27919 3.5 5.2729 3.5 5.26662 3.5C5.26034 3.5 5.25407 3.5 5.24781 3.5C5.24156 3.5 5.23532 3.5 5.22909 3.5C5.22286 3.5 5.21664 3.5 5.21044 3.5C5.20423 3.5 5.19804 3.5 5.19187 3.5C5.18569 3.5 5.17952 3.5 5.17337 3.5C5.16722 3.5 5.16108 3.5 5.15496 3.5C5.14883 3.5 5.14272 3.5 5.13662 3.5C5.13052 3.5 5.12444 3.5 5.11837 3.5C5.11229 3.5 5.10624 3.5 5.10019 3.5C5.09415 3.5 5.08811 3.5 5.08209 3.5C5.07608 3.5 5.07007 3.5 5.06408 3.5C5.05809 3.5 5.05211 3.5 5.04614 3.5C5.04018 3.5 5.03423 3.5 5.02829 3.5C5.02235 3.5 5.01643 3.5 5.01052 3.5C5.00461 3.5 4.99871 3.5 4.99283 3.5C4.98695 3.5 4.98108 3.5 4.97522 3.5C4.96937 3.5 4.96353 3.5 4.9577 3.5C4.95187 3.5 4.94606 3.5 4.94026 3.5C4.93446 3.5 4.92867 3.5 4.9229 3.5C4.91713 3.5 4.91137 3.5 4.90562 3.5C4.89988 3.5 4.89415 3.5 4.88843 3.5C4.88272 3.5 4.87701 3.5 4.87133 3.5C4.86564 3.5 4.85996 3.5 4.85431 3.5C4.84865 3.5 4.843 3.5 4.83737 3.5C4.83174 3.5 4.82612 3.5 4.82052 3.5C4.81492 3.5 4.80933 3.5 4.80375 3.5C4.79818 3.5 4.79262 3.5 4.78708 3.5C4.78153 3.5 4.776 3.5 4.77048 3.5C4.76497 3.5 4.75947 3.5 4.75398 3.5C4.74849 3.5 4.74302 3.5 4.73756 3.5C4.7321 3.5 4.72666 3.5 4.72123 3.5C4.7158 3.5 4.71039 3.5 4.70499 3.5C4.69959 3.5 4.69421 3.5 4.68884 3.5C4.68347 3.5 4.67811 3.5 4.67277 3.5C4.66743 3.5 4.66211 3.5 4.6568 3.5C4.65149 3.5 4.64619 3.5 4.64091 3.5C4.63563 3.5 4.63036 3.5 4.62511 3.5C4.61986 3.5 4.61463 3.5 4.60941 3.5C4.60419 3.5 4.59898 3.5 4.59379 3.5C4.5886 3.5 4.58343 3.5 4.57827 3.5C4.57311 3.5 4.56796 3.5 4.56283 3.5C4.5577 3.5 4.55259 3.5 4.54749 3.5C4.54239 3.5 4.53731 3.5 4.53224 3.5C4.52717 3.5 4.52212 3.5 4.51708 3.5C4.51205 3.5 4.50702 3.5 4.50202 3.5C4.49701 3.5 4.49202 3.5 4.48705 3.5C4.48207 3.5 4.47711 3.5 4.47217 3.5C4.46722 3.5 4.4623 3.5 4.45738 3.5C4.45247 3.5 4.44757 3.5 4.44269 3.5C4.43781 3.5 4.43295 3.5 4.4281 3.5C4.42325 3.5 4.41841 3.5 4.4136 3.5C4.40878 3.5 4.40397 3.5 4.39919 3.5C4.3944 3.5 4.38963 3.5 4.38488 3.5C4.38012 3.5 4.37539 3.5 4.37066 3.5C4.36594 3.5 4.36124 3.5 4.35654 3.5C4.35185 3.5 4.34718 3.5 4.34252 3.5C4.33787 3.5 4.33322 3.5 4.3286 3.5C4.32397 3.5 4.31936 3.5 4.31477 3.5C4.31018 3.5 4.3056 3.5 4.30104 3.5C4.29648 3.5 4.29194 3.5 4.28741 3.5C4.28288 3.5 4.27837 3.5 4.27388 3.5C4.26938 3.5 4.2649 3.5 4.26044 3.5C4.25598 3.5 4.25153 3.5 4.24711 3.5C4.24268 3.5 4.23826 3.5 4.23387 3.5C4.22947 3.5 4.2251 3.5 4.22073 3.5C4.21637 3.5 4.21203 3.5 4.2077 3.5C4.20337 3.5 4.19906 3.5 4.19476 3.5C4.19047 3.5 4.18619 3.5 4.18193 3.5V4.5Z" fill="#797979"/>
<path d="M16.4999 8.80997C16.4999 8.53383 16.2761 8.30997 15.9999 8.30997C15.7238 8.30997 15.4999 8.53383 15.4999 8.80997L16.4999 8.80997ZM0.646449 12.4647C0.451187 12.6599 0.451187 12.9765 0.646449 13.1718L3.82843 16.3538C4.02369 16.549 4.34027 16.549 4.53554 16.3538C4.7308 16.1585 4.7308 15.8419 4.53554 15.6467L1.70711 12.8182L4.53554 9.98981C4.7308 9.79455 4.7308 9.47797 4.53554 9.2827C4.34027 9.08744 4.02369 9.08744 3.82843 9.2827L0.646449 12.4647ZM15.4999 8.80997C15.4999 9.73822 15.2669 10.6329 14.8167 11.2802C14.3791 11.9094 13.7312 12.3182 12.8181 12.3182L12.8181 13.3182C14.0869 13.3182 15.0299 12.725 15.6377 11.8512C16.233 10.9953 16.4999 9.88586 16.4999 8.80997L15.4999 8.80997ZM12.8181 12.3182C12.8139 12.3182 12.8096 12.3182 12.8053 12.3182C12.801 12.3182 12.7967 12.3182 12.7924 12.3182C12.788 12.3182 12.7837 12.3182 12.7793 12.3182C12.775 12.3182 12.7706 12.3182 12.7662 12.3182C12.7618 12.3182 12.7574 12.3182 12.753 12.3182C12.7485 12.3182 12.7441 12.3182 12.7396 12.3182C12.7352 12.3182 12.7307 12.3182 12.7262 12.3182C12.7217 12.3182 12.7172 12.3182 12.7127 12.3182C12.7081 12.3182 12.7036 12.3182 12.699 12.3182C12.6945 12.3182 12.6899 12.3182 12.6853 12.3182C12.6807 12.3182 12.6761 12.3182 12.6715 12.3182C12.6668 12.3182 12.6622 12.3182 12.6575 12.3182C12.6529 12.3182 12.6482 12.3182 12.6435 12.3182C12.6388 12.3182 12.6341 12.3182 12.6294 12.3182C12.6247 12.3182 12.6199 12.3182 12.6152 12.3182C12.6104 12.3182 12.6057 12.3182 12.6009 12.3182C12.5961 12.3182 12.5913 12.3182 12.5865 12.3182C12.5816 12.3182 12.5768 12.3182 12.572 12.3182C12.5671 12.3182 12.5622 12.3182 12.5574 12.3182C12.5525 12.3182 12.5476 12.3182 12.5427 12.3182C12.5378 12.3182 12.5328 12.3182 12.5279 12.3182C12.5229 12.3182 12.518 12.3182 12.513 12.3182C12.508 12.3182 12.503 12.3182 12.498 12.3182C12.493 12.3182 12.488 12.3182 12.483 12.3182C12.4779 12.3182 12.4729 12.3182 12.4678 12.3182C12.4628 12.3182 12.4577 12.3182 12.4526 12.3182C12.4475 12.3182 12.4424 12.3182 12.4372 12.3182C12.4321 12.3182 12.427 12.3182 12.4218 12.3182C12.4166 12.3182 12.4115 12.3182 12.4063 12.3182C12.4011 12.3182 12.3959 12.3182 12.3907 12.3182C12.3854 12.3182 12.3802 12.3182 12.3749 12.3182C12.3697 12.3182 12.3644 12.3182 12.3592 12.3182C12.3539 12.3182 12.3486 12.3182 12.3433 12.3182C12.338 12.3182 12.3326 12.3182 12.3273 12.3182C12.3219 12.3182 12.3166 12.3182 12.3112 12.3182C12.3059 12.3182 12.3005 12.3182 12.2951 12.3182C12.2897 12.3182 12.2843 12.3182 12.2788 12.3182C12.2734 12.3182 12.268 12.3182 12.2625 12.3182C12.257 12.3182 12.2516 12.3182 12.2461 12.3182C12.2406 12.3182 12.2351 12.3182 12.2296 12.3182C12.2241 12.3182 12.2185 12.3182 12.213 12.3182C12.2074 12.3182 12.2019 12.3182 12.1963 12.3182C12.1907 12.3182 12.1851 12.3182 12.1795 12.3182C12.1739 12.3182 12.1683 12.3182 12.1627 12.3182C12.1571 12.3182 12.1514 12.3182 12.1458 12.3182C12.1401 12.3182 12.1344 12.3182 12.1287 12.3182C12.123 12.3182 12.1173 12.3182 12.1116 12.3182C12.1059 12.3182 12.1002 12.3182 12.0944 12.3182C12.0887 12.3182 12.0829 12.3182 12.0772 12.3182C12.0714 12.3182 12.0656 12.3182 12.0598 12.3182C12.054 12.3182 12.0482 12.3182 12.0424 12.3182C12.0365 12.3182 12.0307 12.3182 12.0248 12.3182C12.019 12.3182 12.0131 12.3182 12.0072 12.3182C12.0013 12.3182 11.9954 12.3182 11.9895 12.3182C11.9836 12.3182 11.9777 12.3182 11.9718 12.3182C11.9658 12.3182 11.9599 12.3182 11.9539 12.3182C11.9479 12.3182 11.942 12.3182 11.936 12.3182C11.93 12.3182 11.924 12.3182 11.918 12.3182C11.9119 12.3182 11.9059 12.3182 11.8999 12.3182C11.8938 12.3182 11.8878 12.3182 11.8817 12.3182C11.8756 12.3182 11.8695 12.3182 11.8634 12.3182C11.8573 12.3182 11.8512 12.3182 11.8451 12.3182C11.839 12.3182 11.8328 12.3182 11.8267 12.3182C11.8205 12.3182 11.8144 12.3182 11.8082 12.3182C11.802 12.3182 11.7958 12.3182 11.7896 12.3182C11.7834 12.3182 11.7772 12.3182 11.771 12.3182C11.7647 12.3182 11.7585 12.3182 11.7522 12.3182C11.746 12.3182 11.7397 12.3182 11.7334 12.3182C11.7272 12.3182 11.7209 12.3182 11.7146 12.3182C11.7083 12.3182 11.7019 12.3182 11.6956 12.3182C11.6893 12.3182 11.6829 12.3182 11.6766 12.3182C11.6702 12.3182 11.6638 12.3182 11.6575 12.3182C11.6511 12.3182 11.6447 12.3182 11.6383 12.3182C11.6319 12.3182 11.6254 12.3182 11.619 12.3182C11.6126 12.3182 11.6061 12.3182 11.5997 12.3182C11.5932 12.3182 11.5867 12.3182 11.5803 12.3182C11.5738 12.3182 11.5673 12.3182 11.5608 12.3182C11.5543 12.3182 11.5478 12.3182 11.5412 12.3182C11.5347 12.3182 11.5281 12.3182 11.5216 12.3182C11.515 12.3182 11.5085 12.3182 11.5019 12.3182C11.4953 12.3182 11.4887 12.3182 11.4821 12.3182C11.4755 12.3182 11.4689 12.3182 11.4623 12.3182C11.4556 12.3182 11.449 12.3182 11.4423 12.3182C11.4357 12.3182 11.429 12.3182 11.4223 12.3182C11.4157 12.3182 11.409 12.3182 11.4023 12.3182C11.3956 12.3182 11.3889 12.3182 11.3821 12.3182C11.3754 12.3182 11.3687 12.3182 11.3619 12.3182C11.3552 12.3182 11.3484 12.3182 11.3417 12.3182C11.3349 12.3182 11.3281 12.3182 11.3213 12.3182C11.3145 12.3182 11.3077 12.3182 11.3009 12.3182C11.2941 12.3182 11.2873 12.3182 11.2804 12.3182C11.2736 12.3182 11.2667 12.3182 11.2599 12.3182C11.253 12.3182 11.2461 12.3182 11.2393 12.3182C11.2324 12.3182 11.2255 12.3182 11.2186 12.3182C11.2117 12.3182 11.2047 12.3182 11.1978 12.3182C11.1909 12.3182 11.1839 12.3182 11.177 12.3182C11.17 12.3182 11.1631 12.3182 11.1561 12.3182C11.1491 12.3182 11.1421 12.3182 11.1351 12.3182C11.1281 12.3182 11.1211 12.3182 11.1141 12.3182C11.1071 12.3182 11.1001 12.3182 11.093 12.3182C11.086 12.3182 11.0789 12.3182 11.0719 12.3182C11.0648 12.3182 11.0577 12.3182 11.0506 12.3182C11.0436 12.3182 11.0365 12.3182 11.0294 12.3182C11.0223 12.3182 11.0151 12.3182 11.008 12.3182C11.0009 12.3182 10.9937 12.3182 10.9866 12.3182C10.9795 12.3182 10.9723 12.3182 10.9651 12.3182C10.958 12.3182 10.9508 12.3182 10.9436 12.3182C10.9364 12.3182 10.9292 12.3182 10.922 12.3182C10.9148 12.3182 10.9075 12.3182 10.9003 12.3182C10.8931 12.3182 10.8858 12.3182 10.8786 12.3182C10.8713 12.3182 10.8641 12.3182 10.8568 12.3182C10.8495 12.3182 10.8422 12.3182 10.8349 12.3182C10.8276 12.3182 10.8203 12.3182 10.813 12.3182C10.8057 12.3182 10.7984 12.3182 10.7911 12.3182C10.7837 12.3182 10.7764 12.3182 10.769 12.3182C10.7617 12.3182 10.7543 12.3182 10.7469 12.3182C10.7396 12.3182 10.7322 12.3182 10.7248 12.3182C10.7174 12.3182 10.71 12.3182 10.7026 12.3182C10.6951 12.3182 10.6877 12.3182 10.6803 12.3182C10.6729 12.3182 10.6654 12.3182 10.658 12.3182C10.6505 12.3182 10.643 12.3182 10.6356 12.3182C10.6281 12.3182 10.6206 12.3182 10.6131 12.3182C10.6056 12.3182 10.5981 12.3182 10.5906 12.3182C10.5831 12.3182 10.5756 12.3182 10.568 12.3182C10.5605 12.3182 10.553 12.3182 10.5454 12.3182C10.5379 12.3182 10.5303 12.3182 10.5228 12.3182C10.5152 12.3182 10.5076 12.3182 10.5 12.3182C10.4924 12.3182 10.4848 12.3182 10.4772 12.3182C10.4696 12.3182 10.462 12.3182 10.4544 12.3182C10.4468 12.3182 10.4391 12.3182 10.4315 12.3182C10.4238 12.3182 10.4162 12.3182 10.4085 12.3182C10.4009 12.3182 10.3932 12.3182 10.3855 12.3182C10.3779 12.3182 10.3702 12.3182 10.3625 12.3182C10.3548 12.3182 10.3471 12.3182 10.3394 12.3182C10.3316 12.3182 10.3239 12.3182 10.3162 12.3182C10.3085 12.3182 10.3007 12.3182 10.293 12.3182C10.2852 12.3182 10.2775 12.3182 10.2697 12.3182C10.2619 12.3182 10.2541 12.3182 10.2464 12.3182C10.2386 12.3182 10.2308 12.3182 10.223 12.3182C10.2152 12.3182 10.2074 12.3182 10.1996 12.3182C10.1917 12.3182 10.1839 12.3182 10.1761 12.3182C10.1682 12.3182 10.1604 12.3182 10.1525 12.3182C10.1447 12.3182 10.1368 12.3182 10.129 12.3182C10.1211 12.3182 10.1132 12.3182 10.1053 12.3182C10.0974 12.3182 10.0895 12.3182 10.0816 12.3182C10.0737 12.3182 10.0658 12.3182 10.0579 12.3182C10.05 12.3182 10.0421 12.3182 10.0341 12.3182C10.0262 12.3182 10.0182 12.3182 10.0103 12.3182C10.0023 12.3182 9.99438 12.3182 9.98642 12.3182C9.97845 12.3182 9.97047 12.3182 9.96249 12.3182C9.95451 12.3182 9.94652 12.3182 9.93852 12.3182C9.93052 12.3182 9.92251 12.3182 9.91449 12.3182C9.90648 12.3182 9.89846 12.3182 9.89043 12.3182C9.8824 12.3182 9.87436 12.3182 9.86631 12.3182C9.85827 12.3182 9.85021 12.3182 9.84215 12.3182C9.83409 12.3182 9.82602 12.3182 9.81794 12.3182C9.80987 12.3182 9.80178 12.3182 9.79369 12.3182C9.7856 12.3182 9.7775 12.3182 9.7694 12.3182C9.76129 12.3182 9.75318 12.3182 9.74505 12.3182C9.73693 12.3182 9.7288 12.3182 9.72067 12.3182C9.71253 12.3182 9.70439 12.3182 9.69624 12.3182C9.68809 12.3182 9.67993 12.3182 9.67176 12.3182C9.6636 12.3182 9.65543 12.3182 9.64725 12.3182C9.63907 12.3182 9.63088 12.3182 9.62269 12.3182C9.61449 12.3182 9.60629 12.3182 9.59808 12.3182C9.58987 12.3182 9.58166 12.3182 9.57344 12.3182C9.56521 12.3182 9.55699 12.3182 9.54875 12.3182C9.54051 12.3182 9.53227 12.3182 9.52402 12.3182C9.51577 12.3182 9.50751 12.3182 9.49925 12.3182C9.49099 12.3182 9.48272 12.3182 9.47444 12.3182C9.46616 12.3182 9.45788 12.3182 9.44959 12.3182C9.4413 12.3182 9.433 12.3182 9.4247 12.3182C9.41639 12.3182 9.40808 12.3182 9.39977 12.3182C9.39145 12.3182 9.38313 12.3182 9.3748 12.3182C9.36647 12.3182 9.35813 12.3182 9.34979 12.3182C9.34144 12.3182 9.3331 12.3182 9.32474 12.3182C9.31638 12.3182 9.30802 12.3182 9.29965 12.3182C9.29128 12.3182 9.28291 12.3182 9.27453 12.3182C9.26615 12.3182 9.25776 12.3182 9.24937 12.3182C9.24097 12.3182 9.23257 12.3182 9.22417 12.3182C9.21576 12.3182 9.20735 12.3182 9.19893 12.3182C9.19051 12.3182 9.18209 12.3182 9.17366 12.3182C9.16523 12.3182 9.15679 12.3182 9.14835 12.3182C9.13991 12.3182 9.13146 12.3182 9.12301 12.3182C9.11455 12.3182 9.10609 12.3182 9.09763 12.3182C9.08916 12.3182 9.08069 12.3182 9.07221 12.3182C9.06373 12.3182 9.05525 12.3182 9.04676 12.3182C9.03827 12.3182 9.02978 12.3182 9.02128 12.3182C9.01278 12.3182 9.00427 12.3182 8.99576 12.3182C8.98725 12.3182 8.97873 12.3182 8.97021 12.3182C8.96168 12.3182 8.95315 12.3182 8.94462 12.3182C8.93609 12.3182 8.92755 12.3182 8.919 12.3182C8.91046 12.3182 8.90191 12.3182 8.89335 12.3182C8.8848 12.3182 8.87623 12.3182 8.86767 12.3182C8.8591 12.3182 8.85053 12.3182 8.84195 12.3182C8.83338 12.3182 8.82479 12.3182 8.81621 12.3182C8.80762 12.3182 8.79903 12.3182 8.79043 12.3182C8.78183 12.3182 8.77323 12.3182 8.76462 12.3182C8.75601 12.3182 8.7474 12.3182 8.73878 12.3182C8.73016 12.3182 8.72154 12.3182 8.71291 12.3182C8.70428 12.3182 8.69565 12.3182 8.68701 12.3182C8.67838 12.3182 8.66973 12.3182 8.66109 12.3182C8.65244 12.3182 8.64379 12.3182 8.63513 12.3182C8.62647 12.3182 8.61781 12.3182 8.60914 12.3182C8.60048 12.3182 8.5918 12.3182 8.58313 12.3182C8.57445 12.3182 8.56577 12.3182 8.55709 12.3182C8.5484 12.3182 8.53971 12.3182 8.53102 12.3182C8.52232 12.3182 8.51362 12.3182 8.50492 12.3182C8.49622 12.3182 8.48751 12.3182 8.4788 12.3182C8.47008 12.3182 8.46137 12.3182 8.45264 12.3182C8.44392 12.3182 8.4352 12.3182 8.42647 12.3182C8.41774 12.3182 8.409 12.3182 8.40027 12.3182C8.39153 12.3182 8.38279 12.3182 8.37404 12.3182C8.36529 12.3182 8.35654 12.3182 8.34779 12.3182C8.33903 12.3182 8.33027 12.3182 8.32151 12.3182C8.31274 12.3182 8.30398 12.3182 8.29521 12.3182C8.28643 12.3182 8.27766 12.3182 8.26888 12.3182C8.2601 12.3182 8.25132 12.3182 8.24253 12.3182C8.23374 12.3182 8.22495 12.3182 8.21616 12.3182C8.20736 12.3182 8.19856 12.3182 8.18976 12.3182C8.18096 12.3182 8.17215 12.3182 8.16334 12.3182C8.15453 12.3182 8.14572 12.3182 8.1369 12.3182C8.12809 12.3182 8.11926 12.3182 8.11044 12.3182C8.10162 12.3182 8.09279 12.3182 8.08396 12.3182C8.07512 12.3182 8.06629 12.3182 8.05745 12.3182C8.04861 12.3182 8.03977 12.3182 8.03092 12.3182C8.02208 12.3182 8.01323 12.3182 8.00438 12.3182C7.99553 12.3182 7.98667 12.3182 7.97781 12.3182C7.96895 12.3182 7.96009 12.3182 7.95123 12.3182C7.94236 12.3182 7.93349 12.3182 7.92462 12.3182C7.91575 12.3182 7.90687 12.3182 7.898 12.3182C7.88912 12.3182 7.88024 12.3182 7.87135 12.3182C7.86247 12.3182 7.85358 12.3182 7.84469 12.3182C7.8358 12.3182 7.82691 12.3182 7.81801 12.3182C7.80911 12.3182 7.80022 12.3182 7.79131 12.3182C7.78241 12.3182 7.77351 12.3182 7.7646 12.3182C7.75569 12.3182 7.74678 12.3182 7.73787 12.3182C7.72896 12.3182 7.72004 12.3182 7.71112 12.3182C7.7022 12.3182 7.69328 12.3182 7.68436 12.3182C7.67543 12.3182 7.66651 12.3182 7.65758 12.3182C7.64865 12.3182 7.63972 12.3182 7.63078 12.3182C7.62185 12.3182 7.61291 12.3182 7.60397 12.3182C7.59503 12.3182 7.58609 12.3182 7.57715 12.3182C7.5682 12.3182 7.55926 12.3182 7.55031 12.3182C7.54136 12.3182 7.53241 12.3182 7.52345 12.3182C7.5145 12.3182 7.50555 12.3182 7.49659 12.3182C7.48763 12.3182 7.47867 12.3182 7.46971 12.3182C7.46075 12.3182 7.45178 12.3182 7.44281 12.3182C7.43385 12.3182 7.42488 12.3182 7.41591 12.3182C7.40694 12.3182 7.39797 12.3182 7.38899 12.3182C7.38002 12.3182 7.37104 12.3182 7.36206 12.3182C7.35308 12.3182 7.3441 12.3182 7.33512 12.3182C7.32614 12.3182 7.31715 12.3182 7.30817 12.3182C7.29918 12.3182 7.29019 12.3182 7.28121 12.3182C7.27222 12.3182 7.26322 12.3182 7.25423 12.3182C7.24524 12.3182 7.23624 12.3182 7.22725 12.3182C7.21825 12.3182 7.20925 12.3182 7.20025 12.3182C7.19126 12.3182 7.18225 12.3182 7.17325 12.3182C7.16425 12.3182 7.15525 12.3182 7.14624 12.3182C7.13723 12.3182 7.12823 12.3182 7.11922 12.3182C7.11021 12.3182 7.1012 12.3182 7.09219 12.3182C7.08318 12.3182 7.07417 12.3182 7.06515 12.3182C7.05614 12.3182 7.04713 12.3182 7.03811 12.3182C7.02909 12.3182 7.02008 12.3182 7.01106 12.3182C7.00204 12.3182 6.99302 12.3182 6.984 12.3182C6.97498 12.3182 6.96596 12.3182 6.95694 12.3182C6.94791 12.3182 6.93889 12.3182 6.92987 12.3182C6.92084 12.3182 6.91182 12.3182 6.90279 12.3182C6.89376 12.3182 6.88474 12.3182 6.87571 12.3182C6.86668 12.3182 6.85765 12.3182 6.84862 12.3182C6.83959 12.3182 6.83056 12.3182 6.82153 12.3182C6.8125 12.3182 6.80347 12.3182 6.79443 12.3182C6.7854 12.3182 6.77637 12.3182 6.76733 12.3182C6.7583 12.3182 6.74926 12.3182 6.74023 12.3182C6.73119 12.3182 6.72216 12.3182 6.71312 12.3182C6.70409 12.3182 6.69505 12.3182 6.68601 12.3182C6.67698 12.3182 6.66794 12.3182 6.6589 12.3182C6.64986 12.3182 6.64082 12.3182 6.63179 12.3182C6.62275 12.3182 6.61371 12.3182 6.60467 12.3182C6.59563 12.3182 6.58659 12.3182 6.57755 12.3182C6.56851 12.3182 6.55947 12.3182 6.55043 12.3182C6.54139 12.3182 6.53235 12.3182 6.52331 12.3182C6.51427 12.3182 6.50523 12.3182 6.49619 12.3182C6.48715 12.3182 6.47811 12.3182 6.46907 12.3182C6.46003 12.3182 6.45099 12.3182 6.44195 12.3182C6.43291 12.3182 6.42387 12.3182 6.41483 12.3182C6.40579 12.3182 6.39675 12.3182 6.38771 12.3182C6.37867 12.3182 6.36964 12.3182 6.3606 12.3182C6.35156 12.3182 6.34252 12.3182 6.33348 12.3182C6.32444 12.3182 6.31541 12.3182 6.30637 12.3182C6.29733 12.3182 6.28829 12.3182 6.27926 12.3182C6.27022 12.3182 6.26119 12.3182 6.25215 12.3182C6.24311 12.3182 6.23408 12.3182 6.22505 12.3182C6.21601 12.3182 6.20698 12.3182 6.19794 12.3182C6.18891 12.3182 6.17988 12.3182 6.17085 12.3182C6.16182 12.3182 6.15278 12.3182 6.14375 12.3182C6.13472 12.3182 6.12569 12.3182 6.11667 12.3182C6.10764 12.3182 6.09861 12.3182 6.08958 12.3182C6.08055 12.3182 6.07153 12.3182 6.0625 12.3182C6.05348 12.3182 6.04445 12.3182 6.03543 12.3182C6.02641 12.3182 6.01739 12.3182 6.00836 12.3182C5.99934 12.3182 5.99032 12.3182 5.9813 12.3182C5.97229 12.3182 5.96327 12.3182 5.95425 12.3182C5.94523 12.3182 5.93622 12.3182 5.9272 12.3182C5.91819 12.3182 5.90918 12.3182 5.90017 12.3182C5.89115 12.3182 5.88214 12.3182 5.87313 12.3182C5.86413 12.3182 5.85512 12.3182 5.84611 12.3182C5.83711 12.3182 5.8281 12.3182 5.8191 12.3182C5.81009 12.3182 5.80109 12.3182 5.79209 12.3182C5.78309 12.3182 5.77409 12.3182 5.7651 12.3182C5.7561 12.3182 5.7471 12.3182 5.73811 12.3182C5.72912 12.3182 5.72012 12.3182 5.71113 12.3182C5.70214 12.3182 5.69315 12.3182 5.68417 12.3182C5.67518 12.3182 5.66619 12.3182 5.65721 12.3182C5.64823 12.3182 5.63925 12.3182 5.63027 12.3182C5.62129 12.3182 5.61231 12.3182 5.60333 12.3182C5.59436 12.3182 5.58538 12.3182 5.57641 12.3182C5.56744 12.3182 5.55847 12.3182 5.5495 12.3182C5.54053 12.3182 5.53157 12.3182 5.52261 12.3182C5.51364 12.3182 5.50468 12.3182 5.49572 12.3182C5.48676 12.3182 5.47781 12.3182 5.46885 12.3182C5.4599 12.3182 5.45094 12.3182 5.44199 12.3182C5.43304 12.3182 5.4241 12.3182 5.41515 12.3182C5.4062 12.3182 5.39726 12.3182 5.38832 12.3182C5.37938 12.3182 5.37044 12.3182 5.36151 12.3182C5.35257 12.3182 5.34364 12.3182 5.33471 12.3182C5.32578 12.3182 5.31685 12.3182 5.30792 12.3182C5.299 12.3182 5.29007 12.3182 5.28115 12.3182C5.27223 12.3182 5.26332 12.3182 5.2544 12.3182C5.24549 12.3182 5.23657 12.3182 5.22766 12.3182C5.21876 12.3182 5.20985 12.3182 5.20095 12.3182C5.19204 12.3182 5.18314 12.3182 5.17424 12.3182C5.16534 12.3182 5.15645 12.3182 5.14756 12.3182C5.13867 12.3182 5.12978 12.3182 5.12089 12.3182C5.112 12.3182 5.10312 12.3182 5.09424 12.3182C5.08536 12.3182 5.07649 12.3182 5.06761 12.3182C5.05874 12.3182 5.04987 12.3182 5.041 12.3182C5.03213 12.3182 5.02327 12.3182 5.01441 12.3182C5.00555 12.3182 4.99669 12.3182 4.98784 12.3182C4.97898 12.3182 4.97013 12.3182 4.96128 12.3182C4.95244 12.3182 4.94359 12.3182 4.93475 12.3182C4.92591 12.3182 4.91707 12.3182 4.90824 12.3182C4.89941 12.3182 4.89058 12.3182 4.88175 12.3182C4.87292 12.3182 4.8641 12.3182 4.85528 12.3182C4.84646 12.3182 4.83764 12.3182 4.82883 12.3182C4.82002 12.3182 4.81121 12.3182 4.80241 12.3182C4.7936 12.3182 4.7848 12.3182 4.776 12.3182C4.76721 12.3182 4.75841 12.3182 4.74962 12.3182C4.74083 12.3182 4.73205 12.3182 4.72327 12.3182C4.71449 12.3182 4.70571 12.3182 4.69693 12.3182C4.68816 12.3182 4.67939 12.3182 4.67063 12.3182C4.66186 12.3182 4.6531 12.3182 4.64434 12.3182C4.63558 12.3182 4.62683 12.3182 4.61808 12.3182C4.60933 12.3182 4.60059 12.3182 4.59184 12.3182C4.5831 12.3182 4.57437 12.3182 4.56563 12.3182C4.5569 12.3182 4.54817 12.3182 4.53945 12.3182C4.53073 12.3182 4.52201 12.3182 4.51329 12.3182C4.50458 12.3182 4.49587 12.3182 4.48716 12.3182C4.47845 12.3182 4.46975 12.3182 4.46105 12.3182C4.45236 12.3182 4.44366 12.3182 4.43498 12.3182C4.42629 12.3182 4.41761 12.3182 4.40893 12.3182C4.40025 12.3182 4.39157 12.3182 4.3829 12.3182C4.37423 12.3182 4.36557 12.3182 4.35691 12.3182C4.34825 12.3182 4.33959 12.3182 4.33094 12.3182C4.32229 12.3182 4.31365 12.3182 4.30501 12.3182C4.29637 12.3182 4.28773 12.3182 4.2791 12.3182C4.27047 12.3182 4.26184 12.3182 4.25322 12.3182C4.2446 12.3182 4.23598 12.3182 4.22737 12.3182C4.21876 12.3182 4.21016 12.3182 4.20155 12.3182C4.19295 12.3182 4.18436 12.3182 4.17577 12.3182C4.16718 12.3182 4.15859 12.3182 4.15001 12.3182C4.14143 12.3182 4.13286 12.3182 4.12429 12.3182C4.11572 12.3182 4.10715 12.3182 4.09859 12.3182C4.09003 12.3182 4.08148 12.3182 4.07293 12.3182C4.06438 12.3182 4.05584 12.3182 4.0473 12.3182C4.03877 12.3182 4.03024 12.3182 4.02171 12.3182C4.01318 12.3182 4.00466 12.3182 3.99615 12.3182C3.98763 12.3182 3.97912 12.3182 3.97062 12.3182C3.96211 12.3182 3.95362 12.3182 3.94512 12.3182C3.93663 12.3182 3.92814 12.3182 3.91966 12.3182C3.91118 12.3182 3.90271 12.3182 3.89424 12.3182C3.88577 12.3182 3.8773 12.3182 3.86885 12.3182C3.86039 12.3182 3.85194 12.3182 3.84349 12.3182C3.83505 12.3182 3.82661 12.3182 3.81817 12.3182C3.80974 12.3182 3.80131 12.3182 3.79289 12.3182C3.78447 12.3182 3.77605 12.3182 3.76764 12.3182C3.75923 12.3182 3.75083 12.3182 3.74243 12.3182C3.73403 12.3182 3.72564 12.3182 3.71726 12.3182C3.70887 12.3182 3.70049 12.3182 3.69212 12.3182C3.68375 12.3182 3.67538 12.3182 3.66702 12.3182C3.65866 12.3182 3.65031 12.3182 3.64196 12.3182C3.63362 12.3182 3.62528 12.3182 3.61694 12.3182C3.60861 12.3182 3.60028 12.3182 3.59196 12.3182C3.58364 12.3182 3.57533 12.3182 3.56702 12.3182C3.55871 12.3182 3.55041 12.3182 3.54211 12.3182C3.53382 12.3182 3.52553 12.3182 3.51725 12.3182C3.50897 12.3182 3.5007 12.3182 3.49243 12.3182C3.48416 12.3182 3.4759 12.3182 3.46765 12.3182C3.45939 12.3182 3.45114 12.3182 3.4429 12.3182C3.43466 12.3182 3.42643 12.3182 3.4182 12.3182C3.40998 12.3182 3.40176 12.3182 3.39355 12.3182C3.38533 12.3182 3.37713 12.3182 3.36893 12.3182C3.36073 12.3182 3.35254 12.3182 3.34436 12.3182C3.33617 12.3182 3.328 12.3182 3.31983 12.3182C3.31166 12.3182 3.3035 12.3182 3.29534 12.3182C3.28718 12.3182 3.27904 12.3182 3.2709 12.3182C3.26276 12.3182 3.25462 12.3182 3.2465 12.3182C3.23837 12.3182 3.23025 12.3182 3.22214 12.3182C3.21403 12.3182 3.20593 12.3182 3.19783 12.3182C3.18973 12.3182 3.18165 12.3182 3.17356 12.3182C3.16548 12.3182 3.15741 12.3182 3.14934 12.3182C3.14128 12.3182 3.13322 12.3182 3.12517 12.3182C3.11712 12.3182 3.10908 12.3182 3.10104 12.3182C3.09301 12.3182 3.08498 12.3182 3.07696 12.3182C3.06894 12.3182 3.06093 12.3182 3.05292 12.3182C3.04492 12.3182 3.03692 12.3182 3.02894 12.3182C3.02095 12.3182 3.01297 12.3182 3.00499 12.3182C2.99702 12.3182 2.98906 12.3182 2.9811 12.3182C2.97315 12.3182 2.9652 12.3182 2.95726 12.3182C2.94932 12.3182 2.94139 12.3182 2.93346 12.3182C2.92554 12.3182 2.91762 12.3182 2.90971 12.3182C2.90181 12.3182 2.89391 12.3182 2.88602 12.3182C2.87813 12.3182 2.87024 12.3182 2.86237 12.3182C2.85449 12.3182 2.84663 12.3182 2.83877 12.3182C2.83091 12.3182 2.82306 12.3182 2.81522 12.3182C2.80738 12.3182 2.79955 12.3182 2.79173 12.3182C2.7839 12.3182 2.77609 12.3182 2.76828 12.3182C2.76047 12.3182 2.75267 12.3182 2.74488 12.3182C2.7371 12.3182 2.72931 12.3182 2.72154 12.3182C2.71377 12.3182 2.70601 12.3182 2.69825 12.3182C2.6905 12.3182 2.68275 12.3182 2.67501 12.3182C2.66728 12.3182 2.65955 12.3182 2.65183 12.3182C2.64411 12.3182 2.6364 12.3182 2.6287 12.3182C2.62099 12.3182 2.6133 12.3182 2.60562 12.3182C2.59793 12.3182 2.59026 12.3182 2.58259 12.3182C2.57493 12.3182 2.56727 12.3182 2.55962 12.3182C2.55198 12.3182 2.54434 12.3182 2.53671 12.3182C2.52908 12.3182 2.52146 12.3182 2.51385 12.3182C2.50624 12.3182 2.49864 12.3182 2.49104 12.3182C2.48345 12.3182 2.47587 12.3182 2.46829 12.3182C2.46072 12.3182 2.45316 12.3182 2.4456 12.3182C2.43805 12.3182 2.4305 12.3182 2.42296 12.3182C2.41543 12.3182 2.4079 12.3182 2.40038 12.3182C2.39287 12.3182 2.38536 12.3182 2.37786 12.3182C2.37036 12.3182 2.36287 12.3182 2.3554 12.3182C2.34792 12.3182 2.34045 12.3182 2.33299 12.3182C2.32553 12.3182 2.31808 12.3182 2.31064 12.3182C2.3032 12.3182 2.29577 12.3182 2.28835 12.3182C2.28093 12.3182 2.27352 12.3182 2.26612 12.3182C2.25872 12.3182 2.25133 12.3182 2.24395 12.3182C2.23656 12.3182 2.22919 12.3182 2.22183 12.3182C2.21447 12.3182 2.20712 12.3182 2.19978 12.3182C2.19244 12.3182 2.18511 12.3182 2.17779 12.3182C2.17047 12.3182 2.16316 12.3182 2.15586 12.3182C2.14856 12.3182 2.14127 12.3182 2.13399 12.3182C2.12671 12.3182 2.11944 12.3182 2.11218 12.3182C2.10492 12.3182 2.09767 12.3182 2.09043 12.3182C2.08319 12.3182 2.07596 12.3182 2.06875 12.3182C2.06153 12.3182 2.05432 12.3182 2.04712 12.3182C2.03993 12.3182 2.03274 12.3182 2.02556 12.3182C2.01839 12.3182 2.01122 12.3182 2.00407 12.3182C1.99691 12.3182 1.98977 12.3182 1.98263 12.3182C1.9755 12.3182 1.96838 12.3182 1.96127 12.3182C1.95415 12.3182 1.94705 12.3182 1.93996 12.3182C1.93287 12.3182 1.92579 12.3182 1.91872 12.3182C1.91165 12.3182 1.9046 12.3182 1.89755 12.3182C1.8905 12.3182 1.88346 12.3182 1.87644 12.3182C1.86941 12.3182 1.8624 12.3182 1.85539 12.3182C1.84839 12.3182 1.8414 12.3182 1.83442 12.3182C1.82744 12.3182 1.82047 12.3182 1.81351 12.3182C1.80655 12.3182 1.7996 12.3182 1.79266 12.3182C1.78573 12.3182 1.7788 12.3182 1.77189 12.3182C1.76497 12.3182 1.75807 12.3182 1.75118 12.3182C1.74428 12.3182 1.7374 12.3182 1.73053 12.3182C1.72367 12.3182 1.71681 12.3182 1.70996 12.3182C1.70312 12.3182 1.69628 12.3182 1.68946 12.3182C1.68263 12.3182 1.67582 12.3182 1.66902 12.3182C1.66222 12.3182 1.65543 12.3182 1.64866 12.3182C1.64188 12.3182 1.63511 12.3182 1.62836 12.3182C1.6216 12.3182 1.61486 12.3182 1.60813 12.3182C1.6014 12.3182 1.59468 12.3182 1.58798 12.3182C1.58127 12.3182 1.57457 12.3182 1.56789 12.3182C1.56121 12.3182 1.55454 12.3182 1.54788 12.3182C1.54122 12.3182 1.53457 12.3182 1.52793 12.3182C1.5213 12.3182 1.51467 12.3182 1.50806 12.3182C1.50145 12.3182 1.49485 12.3182 1.48826 12.3182C1.48168 12.3182 1.4751 12.3182 1.46854 12.3182C1.46197 12.3182 1.45542 12.3182 1.44888 12.3182C1.44234 12.3182 1.43582 12.3182 1.4293 12.3182C1.42279 12.3182 1.41629 12.3182 1.4098 12.3182C1.40331 12.3182 1.39683 12.3182 1.39036 12.3182C1.3839 12.3182 1.37745 12.3182 1.37101 12.3182C1.36457 12.3182 1.35814 12.3182 1.35172 12.3182C1.34531 12.3182 1.3389 12.3182 1.33251 12.3182C1.32612 12.3182 1.31975 12.3182 1.31338 12.3182C1.30702 12.3182 1.30066 12.3182 1.29432 12.3182C1.28798 12.3182 1.28166 12.3182 1.27534 12.3182C1.26903 12.3182 1.26273 12.3182 1.25644 12.3182C1.25015 12.3182 1.24387 12.3182 1.23761 12.3182C1.23135 12.3182 1.2251 12.3182 1.21886 12.3182C1.21262 12.3182 1.2064 12.3182 1.20019 12.3182C1.19397 12.3182 1.18778 12.3182 1.18159 12.3182C1.17541 12.3182 1.16923 12.3182 1.16307 12.3182C1.15691 12.3182 1.15077 12.3182 1.14464 12.3182C1.1385 12.3182 1.13238 12.3182 1.12628 12.3182C1.12017 12.3182 1.11408 12.3182 1.108 12.3182C1.10192 12.3182 1.09585 12.3182 1.0898 12.3182C1.08374 12.3182 1.0777 12.3182 1.07168 12.3182C1.06565 12.3182 1.05964 12.3182 1.05364 12.3182C1.04764 12.3182 1.04165 12.3182 1.03568 12.3182C1.0297 12.3182 1.02374 12.3182 1.0178 12.3182C1.01185 12.3182 1.00592 12.3182 1 12.3182L1 13.3182C1.00592 13.3182 1.01185 13.3182 1.0178 13.3182C1.02374 13.3182 1.0297 13.3182 1.03568 13.3182C1.04165 13.3182 1.04764 13.3182 1.05364 13.3182C1.05964 13.3182 1.06565 13.3182 1.07168 13.3182C1.0777 13.3182 1.08374 13.3182 1.0898 13.3182C1.09585 13.3182 1.10192 13.3182 1.108 13.3182C1.11408 13.3182 1.12017 13.3182 1.12628 13.3182C1.13238 13.3182 1.1385 13.3182 1.14464 13.3182C1.15077 13.3182 1.15691 13.3182 1.16307 13.3182C1.16923 13.3182 1.17541 13.3182 1.18159 13.3182C1.18778 13.3182 1.19397 13.3182 1.20019 13.3182C1.2064 13.3182 1.21262 13.3182 1.21886 13.3182C1.2251 13.3182 1.23135 13.3182 1.23761 13.3182C1.24387 13.3182 1.25015 13.3182 1.25644 13.3182C1.26273 13.3182 1.26903 13.3182 1.27534 13.3182C1.28166 13.3182 1.28798 13.3182 1.29432 13.3182C1.30066 13.3182 1.30702 13.3182 1.31338 13.3182C1.31975 13.3182 1.32612 13.3182 1.33251 13.3182C1.3389 13.3182 1.34531 13.3182 1.35172 13.3182C1.35814 13.3182 1.36457 13.3182 1.37101 13.3182C1.37745 13.3182 1.3839 13.3182 1.39036 13.3182C1.39683 13.3182 1.40331 13.3182 1.4098 13.3182C1.41629 13.3182 1.42279 13.3182 1.4293 13.3182C1.43582 13.3182 1.44234 13.3182 1.44888 13.3182C1.45542 13.3182 1.46197 13.3182 1.46854 13.3182C1.4751 13.3182 1.48168 13.3182 1.48826 13.3182C1.49485 13.3182 1.50145 13.3182 1.50806 13.3182C1.51467 13.3182 1.5213 13.3182 1.52793 13.3182C1.53457 13.3182 1.54122 13.3182 1.54788 13.3182C1.55454 13.3182 1.56121 13.3182 1.56789 13.3182C1.57457 13.3182 1.58127 13.3182 1.58798 13.3182C1.59468 13.3182 1.6014 13.3182 1.60813 13.3182C1.61486 13.3182 1.6216 13.3182 1.62836 13.3182C1.63511 13.3182 1.64188 13.3182 1.64866 13.3182C1.65543 13.3182 1.66222 13.3182 1.66902 13.3182C1.67582 13.3182 1.68263 13.3182 1.68946 13.3182C1.69628 13.3182 1.70312 13.3182 1.70996 13.3182C1.71681 13.3182 1.72367 13.3182 1.73054 13.3182C1.7374 13.3182 1.74428 13.3182 1.75118 13.3182C1.75807 13.3182 1.76497 13.3182 1.77189 13.3182C1.7788 13.3182 1.78573 13.3182 1.79266 13.3182C1.7996 13.3182 1.80655 13.3182 1.81351 13.3182C1.82047 13.3182 1.82744 13.3182 1.83442 13.3182C1.8414 13.3182 1.84839 13.3182 1.8554 13.3182C1.8624 13.3182 1.86941 13.3182 1.87644 13.3182C1.88346 13.3182 1.8905 13.3182 1.89755 13.3182C1.9046 13.3182 1.91165 13.3182 1.91872 13.3182C1.92579 13.3182 1.93287 13.3182 1.93996 13.3182C1.94705 13.3182 1.95415 13.3182 1.96127 13.3182C1.96838 13.3182 1.9755 13.3182 1.98264 13.3182C1.98977 13.3182 1.99691 13.3182 2.00407 13.3182C2.01122 13.3182 2.01839 13.3182 2.02556 13.3182C2.03274 13.3182 2.03993 13.3182 2.04712 13.3182C2.05432 13.3182 2.06153 13.3182 2.06875 13.3182C2.07596 13.3182 2.08319 13.3182 2.09043 13.3182C2.09767 13.3182 2.10492 13.3182 2.11218 13.3182C2.11944 13.3182 2.12671 13.3182 2.13399 13.3182C2.14127 13.3182 2.14856 13.3182 2.15586 13.3182C2.16316 13.3182 2.17047 13.3182 2.17779 13.3182C2.18511 13.3182 2.19244 13.3182 2.19978 13.3182C2.20712 13.3182 2.21447 13.3182 2.22183 13.3182C2.22919 13.3182 2.23656 13.3182 2.24395 13.3182C2.25133 13.3182 2.25872 13.3182 2.26612 13.3182C2.27352 13.3182 2.28093 13.3182 2.28835 13.3182C2.29577 13.3182 2.3032 13.3182 2.31064 13.3182C2.31808 13.3182 2.32553 13.3182 2.33299 13.3182C2.34045 13.3182 2.34792 13.3182 2.3554 13.3182C2.36287 13.3182 2.37036 13.3182 2.37786 13.3182C2.38536 13.3182 2.39287 13.3182 2.40038 13.3182C2.4079 13.3182 2.41543 13.3182 2.42296 13.3182C2.4305 13.3182 2.43805 13.3182 2.4456 13.3182C2.45316 13.3182 2.46072 13.3182 2.46829 13.3182C2.47587 13.3182 2.48345 13.3182 2.49104 13.3182C2.49864 13.3182 2.50624 13.3182 2.51385 13.3182C2.52146 13.3182 2.52908 13.3182 2.53671 13.3182C2.54434 13.3182 2.55198 13.3182 2.55962 13.3182C2.56727 13.3182 2.57493 13.3182 2.58259 13.3182C2.59026 13.3182 2.59793 13.3182 2.60562 13.3182C2.6133 13.3182 2.621 13.3182 2.6287 13.3182C2.6364 13.3182 2.64411 13.3182 2.65183 13.3182C2.65955 13.3182 2.66728 13.3182 2.67501 13.3182C2.68275 13.3182 2.6905 13.3182 2.69825 13.3182C2.70601 13.3182 2.71377 13.3182 2.72154 13.3182C2.72931 13.3182 2.7371 13.3182 2.74489 13.3182C2.75267 13.3182 2.76047 13.3182 2.76828 13.3182C2.77609 13.3182 2.7839 13.3182 2.79173 13.3182C2.79955 13.3182 2.80738 13.3182 2.81522 13.3182C2.82306 13.3182 2.83091 13.3182 2.83877 13.3182C2.84663 13.3182 2.85449 13.3182 2.86237 13.3182C2.87024 13.3182 2.87813 13.3182 2.88602 13.3182C2.89391 13.3182 2.90181 13.3182 2.90971 13.3182C2.91762 13.3182 2.92554 13.3182 2.93346 13.3182C2.94139 13.3182 2.94932 13.3182 2.95726 13.3182C2.9652 13.3182 2.97315 13.3182 2.9811 13.3182C2.98906 13.3182 2.99702 13.3182 3.00499 13.3182C3.01297 13.3182 3.02095 13.3182 3.02894 13.3182C3.03692 13.3182 3.04492 13.3182 3.05292 13.3182C3.06093 13.3182 3.06894 13.3182 3.07696 13.3182C3.08498 13.3182 3.09301 13.3182 3.10104 13.3182C3.10908 13.3182 3.11712 13.3182 3.12517 13.3182C3.13322 13.3182 3.14128 13.3182 3.14934 13.3182C3.15741 13.3182 3.16548 13.3182 3.17356 13.3182C3.18165 13.3182 3.18973 13.3182 3.19783 13.3182C3.20593 13.3182 3.21403 13.3182 3.22214 13.3182C3.23025 13.3182 3.23837 13.3182 3.2465 13.3182C3.25462 13.3182 3.26276 13.3182 3.2709 13.3182C3.27904 13.3182 3.28719 13.3182 3.29534 13.3182C3.3035 13.3182 3.31166 13.3182 3.31983 13.3182C3.328 13.3182 3.33617 13.3182 3.34436 13.3182C3.35254 13.3182 3.36073 13.3182 3.36893 13.3182C3.37713 13.3182 3.38533 13.3182 3.39355 13.3182C3.40176 13.3182 3.40998 13.3182 3.4182 13.3182C3.42643 13.3182 3.43466 13.3182 3.4429 13.3182C3.45114 13.3182 3.45939 13.3182 3.46765 13.3182C3.4759 13.3182 3.48416 13.3182 3.49243 13.3182C3.5007 13.3182 3.50897 13.3182 3.51725 13.3182C3.52553 13.3182 3.53382 13.3182 3.54211 13.3182C3.55041 13.3182 3.55871 13.3182 3.56702 13.3182C3.57533 13.3182 3.58364 13.3182 3.59196 13.3182C3.60028 13.3182 3.60861 13.3182 3.61694 13.3182C3.62528 13.3182 3.63362 13.3182 3.64196 13.3182C3.65031 13.3182 3.65866 13.3182 3.66702 13.3182C3.67538 13.3182 3.68375 13.3182 3.69212 13.3182C3.70049 13.3182 3.70887 13.3182 3.71726 13.3182C3.72564 13.3182 3.73403 13.3182 3.74243 13.3182C3.75083 13.3182 3.75923 13.3182 3.76764 13.3182C3.77605 13.3182 3.78447 13.3182 3.79289 13.3182C3.80131 13.3182 3.80974 13.3182 3.81817 13.3182C3.82661 13.3182 3.83505 13.3182 3.84349 13.3182C3.85194 13.3182 3.86039 13.3182 3.86885 13.3182C3.8773 13.3182 3.88577 13.3182 3.89424 13.3182C3.90271 13.3182 3.91118 13.3182 3.91966 13.3182C3.92814 13.3182 3.93663 13.3182 3.94512 13.3182C3.95362 13.3182 3.96211 13.3182 3.97062 13.3182C3.97912 13.3182 3.98763 13.3182 3.99615 13.3182C4.00466 13.3182 4.01318 13.3182 4.02171 13.3182C4.03024 13.3182 4.03877 13.3182 4.0473 13.3182C4.05584 13.3182 4.06438 13.3182 4.07293 13.3182C4.08148 13.3182 4.09003 13.3182 4.09859 13.3182C4.10715 13.3182 4.11572 13.3182 4.12429 13.3182C4.13286 13.3182 4.14143 13.3182 4.15001 13.3182C4.15859 13.3182 4.16718 13.3182 4.17577 13.3182C4.18436 13.3182 4.19295 13.3182 4.20155 13.3182C4.21016 13.3182 4.21876 13.3182 4.22737 13.3182C4.23598 13.3182 4.2446 13.3182 4.25322 13.3182C4.26184 13.3182 4.27047 13.3182 4.2791 13.3182C4.28773 13.3182 4.29637 13.3182 4.30501 13.3182C4.31365 13.3182 4.32229 13.3182 4.33094 13.3182C4.33959 13.3182 4.34825 13.3182 4.35691 13.3182C4.36557 13.3182 4.37423 13.3182 4.3829 13.3182C4.39157 13.3182 4.40025 13.3182 4.40893 13.3182C4.41761 13.3182 4.42629 13.3182 4.43498 13.3182C4.44366 13.3182 4.45236 13.3182 4.46105 13.3182C4.46975 13.3182 4.47845 13.3182 4.48716 13.3182C4.49587 13.3182 4.50458 13.3182 4.51329 13.3182C4.52201 13.3182 4.53073 13.3182 4.53945 13.3182C4.54817 13.3182 4.5569 13.3182 4.56563 13.3182C4.57437 13.3182 4.5831 13.3182 4.59184 13.3182C4.60059 13.3182 4.60933 13.3182 4.61808 13.3182C4.62683 13.3182 4.63558 13.3182 4.64434 13.3182C4.6531 13.3182 4.66186 13.3182 4.67063 13.3182C4.67939 13.3182 4.68816 13.3182 4.69693 13.3182C4.70571 13.3182 4.71449 13.3182 4.72327 13.3182C4.73205 13.3182 4.74084 13.3182 4.74962 13.3182C4.75841 13.3182 4.76721 13.3182 4.776 13.3182C4.7848 13.3182 4.7936 13.3182 4.80241 13.3182C4.81121 13.3182 4.82002 13.3182 4.82883 13.3182C4.83764 13.3182 4.84646 13.3182 4.85528 13.3182C4.8641 13.3182 4.87292 13.3182 4.88175 13.3182C4.89058 13.3182 4.89941 13.3182 4.90824 13.3182C4.91707 13.3182 4.92591 13.3182 4.93475 13.3182C4.94359 13.3182 4.95244 13.3182 4.96128 13.3182C4.97013 13.3182 4.97898 13.3182 4.98784 13.3182C4.99669 13.3182 5.00555 13.3182 5.01441 13.3182C5.02327 13.3182 5.03213 13.3182 5.041 13.3182C5.04987 13.3182 5.05874 13.3182 5.06761 13.3182C5.07649 13.3182 5.08536 13.3182 5.09424 13.3182C5.10312 13.3182 5.112 13.3182 5.12089 13.3182C5.12978 13.3182 5.13867 13.3182 5.14756 13.3182C5.15645 13.3182 5.16534 13.3182 5.17424 13.3182C5.18314 13.3182 5.19204 13.3182 5.20095 13.3182C5.20985 13.3182 5.21876 13.3182 5.22766 13.3182C5.23657 13.3182 5.24549 13.3182 5.2544 13.3182C5.26332 13.3182 5.27223 13.3182 5.28115 13.3182C5.29007 13.3182 5.299 13.3182 5.30792 13.3182C5.31685 13.3182 5.32578 13.3182 5.33471 13.3182C5.34364 13.3182 5.35257 13.3182 5.36151 13.3182C5.37044 13.3182 5.37938 13.3182 5.38832 13.3182C5.39726 13.3182 5.4062 13.3182 5.41515 13.3182C5.4241 13.3182 5.43304 13.3182 5.44199 13.3182C5.45094 13.3182 5.4599 13.3182 5.46885 13.3182C5.47781 13.3182 5.48676 13.3182 5.49572 13.3182C5.50468 13.3182 5.51364 13.3182 5.52261 13.3182C5.53157 13.3182 5.54053 13.3182 5.5495 13.3182C5.55847 13.3182 5.56744 13.3182 5.57641 13.3182C5.58538 13.3182 5.59436 13.3182 5.60333 13.3182C5.61231 13.3182 5.62129 13.3182 5.63027 13.3182C5.63925 13.3182 5.64823 13.3182 5.65721 13.3182C5.66619 13.3182 5.67518 13.3182 5.68417 13.3182C5.69315 13.3182 5.70214 13.3182 5.71113 13.3182C5.72012 13.3182 5.72912 13.3182 5.73811 13.3182C5.7471 13.3182 5.7561 13.3182 5.7651 13.3182C5.77409 13.3182 5.78309 13.3182 5.79209 13.3182C5.80109 13.3182 5.81009 13.3182 5.8191 13.3182C5.8281 13.3182 5.83711 13.3182 5.84611 13.3182C5.85512 13.3182 5.86413 13.3182 5.87314 13.3182C5.88214 13.3182 5.89115 13.3182 5.90017 13.3182C5.90918 13.3182 5.91819 13.3182 5.9272 13.3182C5.93622 13.3182 5.94523 13.3182 5.95425 13.3182C5.96327 13.3182 5.97229 13.3182 5.9813 13.3182C5.99032 13.3182 5.99934 13.3182 6.00836 13.3182C6.01739 13.3182 6.02641 13.3182 6.03543 13.3182C6.04445 13.3182 6.05348 13.3182 6.0625 13.3182C6.07153 13.3182 6.08055 13.3182 6.08958 13.3182C6.09861 13.3182 6.10764 13.3182 6.11667 13.3182C6.12569 13.3182 6.13472 13.3182 6.14375 13.3182C6.15278 13.3182 6.16182 13.3182 6.17085 13.3182C6.17988 13.3182 6.18891 13.3182 6.19794 13.3182C6.20698 13.3182 6.21601 13.3182 6.22505 13.3182C6.23408 13.3182 6.24311 13.3182 6.25215 13.3182C6.26119 13.3182 6.27022 13.3182 6.27926 13.3182C6.28829 13.3182 6.29733 13.3182 6.30637 13.3182C6.31541 13.3182 6.32444 13.3182 6.33348 13.3182C6.34252 13.3182 6.35156 13.3182 6.3606 13.3182C6.36964 13.3182 6.37867 13.3182 6.38771 13.3182C6.39675 13.3182 6.40579 13.3182 6.41483 13.3182C6.42387 13.3182 6.43291 13.3182 6.44195 13.3182C6.45099 13.3182 6.46003 13.3182 6.46907 13.3182C6.47811 13.3182 6.48715 13.3182 6.49619 13.3182C6.50523 13.3182 6.51427 13.3182 6.52331 13.3182C6.53235 13.3182 6.54139 13.3182 6.55043 13.3182C6.55947 13.3182 6.56851 13.3182 6.57755 13.3182C6.58659 13.3182 6.59563 13.3182 6.60467 13.3182C6.61371 13.3182 6.62275 13.3182 6.63179 13.3182C6.64082 13.3182 6.64986 13.3182 6.6589 13.3182C6.66794 13.3182 6.67698 13.3182 6.68601 13.3182C6.69505 13.3182 6.70409 13.3182 6.71312 13.3182C6.72216 13.3182 6.73119 13.3182 6.74023 13.3182C6.74926 13.3182 6.7583 13.3182 6.76733 13.3182C6.77637 13.3182 6.7854 13.3182 6.79443 13.3182C6.80347 13.3182 6.8125 13.3182 6.82153 13.3182C6.83056 13.3182 6.83959 13.3182 6.84862 13.3182C6.85765 13.3182 6.86668 13.3182 6.87571 13.3182C6.88474 13.3182 6.89376 13.3182 6.90279 13.3182C6.91182 13.3182 6.92084 13.3182 6.92987 13.3182C6.93889 13.3182 6.94791 13.3182 6.95694 13.3182C6.96596 13.3182 6.97498 13.3182 6.984 13.3182C6.99302 13.3182 7.00204 13.3182 7.01106 13.3182C7.02008 13.3182 7.0291 13.3182 7.03811 13.3182C7.04713 13.3182 7.05614 13.3182 7.06516 13.3182C7.07417 13.3182 7.08318 13.3182 7.09219 13.3182C7.1012 13.3182 7.11021 13.3182 7.11922 13.3182C7.12823 13.3182 7.13724 13.3182 7.14624 13.3182C7.15525 13.3182 7.16425 13.3182 7.17325 13.3182C7.18225 13.3182 7.19126 13.3182 7.20025 13.3182C7.20925 13.3182 7.21825 13.3182 7.22725 13.3182C7.23624 13.3182 7.24524 13.3182 7.25423 13.3182C7.26322 13.3182 7.27222 13.3182 7.28121 13.3182C7.29019 13.3182 7.29918 13.3182 7.30817 13.3182C7.31715 13.3182 7.32614 13.3182 7.33512 13.3182C7.3441 13.3182 7.35308 13.3182 7.36206 13.3182C7.37104 13.3182 7.38002 13.3182 7.38899 13.3182C7.39797 13.3182 7.40694 13.3182 7.41591 13.3182C7.42488 13.3182 7.43385 13.3182 7.44281 13.3182C7.45178 13.3182 7.46075 13.3182 7.46971 13.3182C7.47867 13.3182 7.48763 13.3182 7.49659 13.3182C7.50555 13.3182 7.5145 13.3182 7.52345 13.3182C7.53241 13.3182 7.54136 13.3182 7.55031 13.3182C7.55926 13.3182 7.5682 13.3182 7.57715 13.3182C7.58609 13.3182 7.59503 13.3182 7.60397 13.3182C7.61291 13.3182 7.62185 13.3182 7.63078 13.3182C7.63972 13.3182 7.64865 13.3182 7.65758 13.3182C7.66651 13.3182 7.67543 13.3182 7.68436 13.3182C7.69328 13.3182 7.7022 13.3182 7.71112 13.3182C7.72004 13.3182 7.72896 13.3182 7.73787 13.3182C7.74678 13.3182 7.75569 13.3182 7.7646 13.3182C7.77351 13.3182 7.78241 13.3182 7.79131 13.3182C7.80022 13.3182 7.80911 13.3182 7.81801 13.3182C7.82691 13.3182 7.8358 13.3182 7.84469 13.3182C7.85358 13.3182 7.86247 13.3182 7.87135 13.3182C7.88024 13.3182 7.88912 13.3182 7.898 13.3182C7.90687 13.3182 7.91575 13.3182 7.92462 13.3182C7.93349 13.3182 7.94236 13.3182 7.95123 13.3182C7.96009 13.3182 7.96895 13.3182 7.97781 13.3182C7.98667 13.3182 7.99553 13.3182 8.00438 13.3182C8.01323 13.3182 8.02208 13.3182 8.03092 13.3182C8.03977 13.3182 8.04861 13.3182 8.05745 13.3182C8.06629 13.3182 8.07512 13.3182 8.08396 13.3182C8.09279 13.3182 8.10162 13.3182 8.11044 13.3182C8.11926 13.3182 8.12809 13.3182 8.1369 13.3182C8.14572 13.3182 8.15453 13.3182 8.16334 13.3182C8.17215 13.3182 8.18096 13.3182 8.18976 13.3182C8.19856 13.3182 8.20736 13.3182 8.21616 13.3182C8.22495 13.3182 8.23374 13.3182 8.24253 13.3182C8.25132 13.3182 8.2601 13.3182 8.26888 13.3182C8.27766 13.3182 8.28643 13.3182 8.29521 13.3182C8.30398 13.3182 8.31274 13.3182 8.32151 13.3182C8.33027 13.3182 8.33903 13.3182 8.34779 13.3182C8.35654 13.3182 8.36529 13.3182 8.37404 13.3182C8.38279 13.3182 8.39153 13.3182 8.40027 13.3182C8.409 13.3182 8.41774 13.3182 8.42647 13.3182C8.4352 13.3182 8.44392 13.3182 8.45264 13.3182C8.46137 13.3182 8.47008 13.3182 8.4788 13.3182C8.48751 13.3182 8.49622 13.3182 8.50492 13.3182C8.51362 13.3182 8.52232 13.3182 8.53102 13.3182C8.53971 13.3182 8.5484 13.3182 8.55709 13.3182C8.56577 13.3182 8.57445 13.3182 8.58313 13.3182C8.5918 13.3182 8.60048 13.3182 8.60914 13.3182C8.61781 13.3182 8.62647 13.3182 8.63513 13.3182C8.64379 13.3182 8.65244 13.3182 8.66109 13.3182C8.66973 13.3182 8.67838 13.3182 8.68701 13.3182C8.69565 13.3182 8.70428 13.3182 8.71291 13.3182C8.72154 13.3182 8.73016 13.3182 8.73878 13.3182C8.7474 13.3182 8.75601 13.3182 8.76462 13.3182C8.77323 13.3182 8.78183 13.3182 8.79043 13.3182C8.79903 13.3182 8.80762 13.3182 8.81621 13.3182C8.82479 13.3182 8.83338 13.3182 8.84195 13.3182C8.85053 13.3182 8.8591 13.3182 8.86767 13.3182C8.87623 13.3182 8.8848 13.3182 8.89335 13.3182C8.90191 13.3182 8.91046 13.3182 8.919 13.3182C8.92755 13.3182 8.93609 13.3182 8.94462 13.3182C8.95315 13.3182 8.96168 13.3182 8.97021 13.3182C8.97873 13.3182 8.98725 13.3182 8.99576 13.3182C9.00427 13.3182 9.01278 13.3182 9.02128 13.3182C9.02978 13.3182 9.03827 13.3182 9.04676 13.3182C9.05525 13.3182 9.06373 13.3182 9.07221 13.3182C9.08069 13.3182 9.08916 13.3182 9.09763 13.3182C9.10609 13.3182 9.11455 13.3182 9.12301 13.3182C9.13146 13.3182 9.13991 13.3182 9.14835 13.3182C9.15679 13.3182 9.16523 13.3182 9.17366 13.3182C9.18209 13.3182 9.19051 13.3182 9.19893 13.3182C9.20735 13.3182 9.21576 13.3182 9.22417 13.3182C9.23257 13.3182 9.24097 13.3182 9.24937 13.3182C9.25776 13.3182 9.26615 13.3182 9.27453 13.3182C9.28291 13.3182 9.29128 13.3182 9.29965 13.3182C9.30802 13.3182 9.31638 13.3182 9.32474 13.3182C9.3331 13.3182 9.34144 13.3182 9.34979 13.3182C9.35813 13.3182 9.36647 13.3182 9.3748 13.3182C9.38313 13.3182 9.39145 13.3182 9.39977 13.3182C9.40808 13.3182 9.41639 13.3182 9.4247 13.3182C9.433 13.3182 9.4413 13.3182 9.44959 13.3182C9.45788 13.3182 9.46616 13.3182 9.47444 13.3182C9.48272 13.3182 9.49099 13.3182 9.49925 13.3182C9.50752 13.3182 9.51577 13.3182 9.52402 13.3182C9.53227 13.3182 9.54051 13.3182 9.54875 13.3182C9.55699 13.3182 9.56522 13.3182 9.57344 13.3182C9.58166 13.3182 9.58987 13.3182 9.59808 13.3182C9.60629 13.3182 9.61449 13.3182 9.62269 13.3182C9.63088 13.3182 9.63907 13.3182 9.64725 13.3182C9.65543 13.3182 9.6636 13.3182 9.67176 13.3182C9.67993 13.3182 9.68809 13.3182 9.69624 13.3182C9.70439 13.3182 9.71253 13.3182 9.72067 13.3182C9.7288 13.3182 9.73693 13.3182 9.74505 13.3182C9.75318 13.3182 9.76129 13.3182 9.7694 13.3182C9.7775 13.3182 9.7856 13.3182 9.79369 13.3182C9.80178 13.3182 9.80987 13.3182 9.81794 13.3182C9.82602 13.3182 9.83409 13.3182 9.84215 13.3182C9.85021 13.3182 9.85827 13.3182 9.86631 13.3182C9.87436 13.3182 9.8824 13.3182 9.89043 13.3182C9.89846 13.3182 9.90648 13.3182 9.91449 13.3182C9.92251 13.3182 9.93052 13.3182 9.93852 13.3182C9.94652 13.3182 9.95451 13.3182 9.96249 13.3182C9.97047 13.3182 9.97845 13.3182 9.98642 13.3182C9.99438 13.3182 10.0023 13.3182 10.0103 13.3182C10.0182 13.3182 10.0262 13.3182 10.0341 13.3182C10.0421 13.3182 10.05 13.3182 10.0579 13.3182C10.0658 13.3182 10.0737 13.3182 10.0816 13.3182C10.0895 13.3182 10.0974 13.3182 10.1053 13.3182C10.1132 13.3182 10.1211 13.3182 10.129 13.3182C10.1368 13.3182 10.1447 13.3182 10.1525 13.3182C10.1604 13.3182 10.1682 13.3182 10.1761 13.3182C10.1839 13.3182 10.1917 13.3182 10.1996 13.3182C10.2074 13.3182 10.2152 13.3182 10.223 13.3182C10.2308 13.3182 10.2386 13.3182 10.2464 13.3182C10.2541 13.3182 10.2619 13.3182 10.2697 13.3182C10.2775 13.3182 10.2852 13.3182 10.293 13.3182C10.3007 13.3182 10.3085 13.3182 10.3162 13.3182C10.3239 13.3182 10.3316 13.3182 10.3394 13.3182C10.3471 13.3182 10.3548 13.3182 10.3625 13.3182C10.3702 13.3182 10.3779 13.3182 10.3855 13.3182C10.3932 13.3182 10.4009 13.3182 10.4085 13.3182C10.4162 13.3182 10.4238 13.3182 10.4315 13.3182C10.4391 13.3182 10.4468 13.3182 10.4544 13.3182C10.462 13.3182 10.4696 13.3182 10.4772 13.3182C10.4848 13.3182 10.4924 13.3182 10.5 13.3182C10.5076 13.3182 10.5152 13.3182 10.5228 13.3182C10.5303 13.3182 10.5379 13.3182 10.5454 13.3182C10.553 13.3182 10.5605 13.3182 10.568 13.3182C10.5756 13.3182 10.5831 13.3182 10.5906 13.3182C10.5981 13.3182 10.6056 13.3182 10.6131 13.3182C10.6206 13.3182 10.6281 13.3182 10.6356 13.3182C10.643 13.3182 10.6505 13.3182 10.658 13.3182C10.6654 13.3182 10.6729 13.3182 10.6803 13.3182C10.6877 13.3182 10.6951 13.3182 10.7026 13.3182C10.71 13.3182 10.7174 13.3182 10.7248 13.3182C10.7322 13.3182 10.7396 13.3182 10.7469 13.3182C10.7543 13.3182 10.7617 13.3182 10.769 13.3182C10.7764 13.3182 10.7837 13.3182 10.7911 13.3182C10.7984 13.3182 10.8057 13.3182 10.813 13.3182C10.8203 13.3182 10.8276 13.3182 10.8349 13.3182C10.8422 13.3182 10.8495 13.3182 10.8568 13.3182C10.8641 13.3182 10.8713 13.3182 10.8786 13.3182C10.8858 13.3182 10.8931 13.3182 10.9003 13.3182C10.9075 13.3182 10.9148 13.3182 10.922 13.3182C10.9292 13.3182 10.9364 13.3182 10.9436 13.3182C10.9508 13.3182 10.958 13.3182 10.9651 13.3182C10.9723 13.3182 10.9795 13.3182 10.9866 13.3182C10.9937 13.3182 11.0009 13.3182 11.008 13.3182C11.0151 13.3182 11.0223 13.3182 11.0294 13.3182C11.0365 13.3182 11.0436 13.3182 11.0506 13.3182C11.0577 13.3182 11.0648 13.3182 11.0719 13.3182C11.0789 13.3182 11.086 13.3182 11.093 13.3182C11.1001 13.3182 11.1071 13.3182 11.1141 13.3182C11.1211 13.3182 11.1281 13.3182 11.1351 13.3182C11.1421 13.3182 11.1491 13.3182 11.1561 13.3182C11.1631 13.3182 11.17 13.3182 11.177 13.3182C11.1839 13.3182 11.1909 13.3182 11.1978 13.3182C11.2047 13.3182 11.2117 13.3182 11.2186 13.3182C11.2255 13.3182 11.2324 13.3182 11.2393 13.3182C11.2461 13.3182 11.253 13.3182 11.2599 13.3182C11.2667 13.3182 11.2736 13.3182 11.2804 13.3182C11.2873 13.3182 11.2941 13.3182 11.3009 13.3182C11.3077 13.3182 11.3145 13.3182 11.3213 13.3182C11.3281 13.3182 11.3349 13.3182 11.3417 13.3182C11.3484 13.3182 11.3552 13.3182 11.3619 13.3182C11.3687 13.3182 11.3754 13.3182 11.3821 13.3182C11.3889 13.3182 11.3956 13.3182 11.4023 13.3182C11.409 13.3182 11.4157 13.3182 11.4223 13.3182C11.429 13.3182 11.4357 13.3182 11.4423 13.3182C11.449 13.3182 11.4556 13.3182 11.4623 13.3182C11.4689 13.3182 11.4755 13.3182 11.4821 13.3182C11.4887 13.3182 11.4953 13.3182 11.5019 13.3182C11.5085 13.3182 11.515 13.3182 11.5216 13.3182C11.5281 13.3182 11.5347 13.3182 11.5412 13.3182C11.5478 13.3182 11.5543 13.3182 11.5608 13.3182C11.5673 13.3182 11.5738 13.3182 11.5803 13.3182C11.5867 13.3182 11.5932 13.3182 11.5997 13.3182C11.6061 13.3182 11.6126 13.3182 11.619 13.3182C11.6254 13.3182 11.6319 13.3182 11.6383 13.3182C11.6447 13.3182 11.6511 13.3182 11.6575 13.3182C11.6638 13.3182 11.6702 13.3182 11.6766 13.3182C11.6829 13.3182 11.6893 13.3182 11.6956 13.3182C11.7019 13.3182 11.7083 13.3182 11.7146 13.3182C11.7209 13.3182 11.7272 13.3182 11.7334 13.3182C11.7397 13.3182 11.746 13.3182 11.7522 13.3182C11.7585 13.3182 11.7647 13.3182 11.771 13.3182C11.7772 13.3182 11.7834 13.3182 11.7896 13.3182C11.7958 13.3182 11.802 13.3182 11.8082 13.3182C11.8144 13.3182 11.8205 13.3182 11.8267 13.3182C11.8328 13.3182 11.839 13.3182 11.8451 13.3182C11.8512 13.3182 11.8573 13.3182 11.8634 13.3182C11.8695 13.3182 11.8756 13.3182 11.8817 13.3182C11.8878 13.3182 11.8938 13.3182 11.8999 13.3182C11.9059 13.3182 11.9119 13.3182 11.918 13.3182C11.924 13.3182 11.93 13.3182 11.936 13.3182C11.942 13.3182 11.948 13.3182 11.9539 13.3182C11.9599 13.3182 11.9658 13.3182 11.9718 13.3182C11.9777 13.3182 11.9836 13.3182 11.9895 13.3182C11.9954 13.3182 12.0013 13.3182 12.0072 13.3182C12.0131 13.3182 12.019 13.3182 12.0248 13.3182C12.0307 13.3182 12.0365 13.3182 12.0424 13.3182C12.0482 13.3182 12.054 13.3182 12.0598 13.3182C12.0656 13.3182 12.0714 13.3182 12.0772 13.3182C12.0829 13.3182 12.0887 13.3182 12.0944 13.3182C12.1002 13.3182 12.1059 13.3182 12.1116 13.3182C12.1173 13.3182 12.123 13.3182 12.1287 13.3182C12.1344 13.3182 12.1401 13.3182 12.1458 13.3182C12.1514 13.3182 12.1571 13.3182 12.1627 13.3182C12.1683 13.3182 12.1739 13.3182 12.1795 13.3182C12.1851 13.3182 12.1907 13.3182 12.1963 13.3182C12.2019 13.3182 12.2074 13.3182 12.213 13.3182C12.2185 13.3182 12.2241 13.3182 12.2296 13.3182C12.2351 13.3182 12.2406 13.3182 12.2461 13.3182C12.2516 13.3182 12.257 13.3182 12.2625 13.3182C12.268 13.3182 12.2734 13.3182 12.2788 13.3182C12.2843 13.3182 12.2897 13.3182 12.2951 13.3182C12.3005 13.3182 12.3059 13.3182 12.3112 13.3182C12.3166 13.3182 12.3219 13.3182 12.3273 13.3182C12.3326 13.3182 12.338 13.3182 12.3433 13.3182C12.3486 13.3182 12.3539 13.3182 12.3592 13.3182C12.3644 13.3182 12.3697 13.3182 12.3749 13.3182C12.3802 13.3182 12.3854 13.3182 12.3907 13.3182C12.3959 13.3182 12.4011 13.3182 12.4063 13.3182C12.4115 13.3182 12.4166 13.3182 12.4218 13.3182C12.427 13.3182 12.4321 13.3182 12.4372 13.3182C12.4424 13.3182 12.4475 13.3182 12.4526 13.3182C12.4577 13.3182 12.4628 13.3182 12.4678 13.3182C12.4729 13.3182 12.4779 13.3182 12.483 13.3182C12.488 13.3182 12.493 13.3182 12.498 13.3182C12.503 13.3182 12.508 13.3182 12.513 13.3182C12.518 13.3182 12.5229 13.3182 12.5279 13.3182C12.5328 13.3182 12.5378 13.3182 12.5427 13.3182C12.5476 13.3182 12.5525 13.3182 12.5574 13.3182C12.5622 13.3182 12.5671 13.3182 12.572 13.3182C12.5768 13.3182 12.5816 13.3182 12.5865 13.3182C12.5913 13.3182 12.5961 13.3182 12.6009 13.3182C12.6057 13.3182 12.6104 13.3182 12.6152 13.3182C12.6199 13.3182 12.6247 13.3182 12.6294 13.3182C12.6341 13.3182 12.6388 13.3182 12.6435 13.3182C12.6482 13.3182 12.6529 13.3182 12.6575 13.3182C12.6622 13.3182 12.6668 13.3182 12.6715 13.3182C12.6761 13.3182 12.6807 13.3182 12.6853 13.3182C12.6899 13.3182 12.6945 13.3182 12.699 13.3182C12.7036 13.3182 12.7081 13.3182 12.7127 13.3182C12.7172 13.3182 12.7217 13.3182 12.7262 13.3182C12.7307 13.3182 12.7352 13.3182 12.7396 13.3182C12.7441 13.3182 12.7485 13.3182 12.753 13.3182C12.7574 13.3182 12.7618 13.3182 12.7662 13.3182C12.7706 13.3182 12.775 13.3182 12.7793 13.3182C12.7837 13.3182 12.788 13.3182 12.7924 13.3182C12.7967 13.3182 12.801 13.3182 12.8053 13.3182C12.8096 13.3182 12.8139 13.3182 12.8181 13.3182L12.8181 12.3182Z" fill="#797979"/>
</svg>
