<svg width="20" height="21" viewBox="0 0 20 21" fill="none" xmlns="http://www.w3.org/2000/svg">
<path fill-rule="evenodd" clip-rule="evenodd" d="M13.1784 2.31473C8.8883 -1.43503 2.23598 0.686636 0.759239 6.24795C0.139126 8.58195 0.737381 9.6657 0.737381 11.4174C0.737381 13.218 0 15.8262 0 15.8262C0 16.1452 0.283228 16.4563 0.632042 16.3656C1.87923 16.0395 3.86279 15.3945 6.23493 16.0385C14.2119 18.2011 19.3308 7.6916 13.1784 2.31473ZM19.4471 20.4304C19.3954 20.4304 19.3418 20.4234 19.2871 20.4095C12.9806 18.8262 13.404 20.6049 9.89995 19.6677C8.83959 19.3845 7.87464 18.8741 7.04186 18.2121C13.406 18.9917 18.7107 13.4474 17.7716 6.91794C18.7326 7.91794 19.4382 9.15622 19.7363 10.5431C20.585 14.4793 18.4305 13.8133 19.9838 19.7953C20.0752 20.1453 19.7651 20.4304 19.4471 20.4304Z" fill="#797979"/>
</svg>
