<svg width="20" height="20" viewBox="0 0 20 20" fill="none" xmlns="http://www.w3.org/2000/svg">
<path fill-rule="evenodd" clip-rule="evenodd" d="M13.1784 1.88434C8.8883 -1.86542 2.23598 0.256247 0.759239 5.81756C0.139126 8.15156 0.737381 9.23531 0.737381 10.9871C0.737381 12.7877 0 15.3958 0 15.3958C0 15.7149 0.283228 16.0259 0.632042 15.9352C1.87923 15.6092 3.86279 14.9641 6.23493 15.6082C14.2119 17.7707 19.3308 7.26121 13.1784 1.88434ZM19.4471 20C19.3954 20 19.3418 19.993 19.2871 19.9791C12.9806 18.3958 13.404 20.1745 9.89995 19.2373C8.8396 18.9542 7.87464 18.4437 7.04186 17.7817C13.406 18.5613 18.7107 13.017 17.7716 6.48755C18.7326 7.48755 19.4382 8.72583 19.7363 10.1127C20.585 14.0489 18.4305 13.3829 19.9838 19.3649C20.0752 19.7149 19.7651 20 19.4471 20Z" fill="#05B1A1"/>
</svg>
