<svg width="20" height="17" viewBox="0 0 20 17" fill="none" xmlns="http://www.w3.org/2000/svg">
<path fill-rule="evenodd" clip-rule="evenodd" d="M5.43697 3.05176e-05C6.87959 3.05176e-05 8.0999 0.950072 8.50706 2.25813C8.08352 2.44533 7.7021 2.70858 7.37918 3.03033C6.70994 3.70074 6.29576 4.62505 6.29576 5.64646C6.29576 5.86876 6.31565 6.08755 6.35309 6.30049C6.06293 6.3859 5.75522 6.4327 5.43697 6.4327C3.66091 6.4327 2.22064 4.99243 2.22064 3.21636C2.22064 1.4403 3.66091 3.05176e-05 5.43697 3.05176e-05Z" fill="#05B1A1"/>
<path fill-rule="evenodd" clip-rule="evenodd" d="M0 13.324C1.35837 13.5592 2.71674 13.7019 4.07511 13.7569V12.8677C4.07511 11.6895 4.55715 10.6178 5.33287 9.8421C5.98339 9.19158 6.84217 8.74698 7.79689 8.62062C7.6483 8.51181 7.50907 8.3913 7.3792 8.26143C6.9346 7.81683 6.60232 7.25991 6.43033 6.63747H3.80133C1.71054 6.63747 0 8.34801 0 10.4376V13.324Z" fill="#05B1A1"/>
<path fill-rule="evenodd" clip-rule="evenodd" d="M4.55719 15.7541C8.18185 16.3801 11.8065 16.3531 15.4312 15.7541V12.8677C15.4312 10.7769 13.7206 9.06638 11.6298 9.06638H8.35852C6.26773 9.06638 4.55719 10.7769 4.55719 12.8677V15.7541Z" fill="#05B1A1"/>
<path fill-rule="evenodd" clip-rule="evenodd" d="M20 13.324C18.6416 13.5592 17.2832 13.7019 15.9248 13.7569V12.8677C15.9248 11.6895 15.4428 10.6178 14.6671 9.8421C14.0166 9.19158 13.1578 8.74698 12.2031 8.62062C12.3517 8.51181 12.4909 8.3913 12.6208 8.26143C13.0654 7.81683 13.3976 7.25991 13.5696 6.63747H16.1986C18.2894 6.63747 20 8.34801 20 10.4376V13.324Z" fill="#05B1A1"/>
<path fill-rule="evenodd" clip-rule="evenodd" d="M14.563 3.05176e-05C13.1204 3.05176e-05 11.9001 0.950072 11.4929 2.25813C11.9165 2.44533 12.2979 2.70858 12.6208 3.03033C13.29 3.70074 13.7042 4.62505 13.7042 5.64646C13.7042 5.86876 13.6843 6.08755 13.6469 6.30049C13.9371 6.3859 14.2448 6.4327 14.563 6.4327C16.3391 6.4327 17.7793 4.99243 17.7793 3.21636C17.7793 1.4403 16.3391 3.05176e-05 14.563 3.05176e-05Z" fill="#05B1A1"/>
<path fill-rule="evenodd" clip-rule="evenodd" d="M9.99417 2.43007C11.7702 2.43007 13.2105 3.87034 13.2105 5.6464C13.2105 7.42246 11.7702 8.86274 9.99417 8.86274C8.2181 8.86274 6.77783 7.42246 6.77783 5.6464C6.77783 3.87034 8.2181 2.43007 9.99417 2.43007Z" fill="#05B1A1"/>
<path fill-rule="evenodd" clip-rule="evenodd" d="M4.55719 15.7541C8.18185 16.3801 11.8065 16.3531 15.4312 15.7541V12.8677C15.4312 10.7769 13.7206 9.06638 11.6298 9.06638H8.35852C6.26773 9.06638 4.55719 10.7769 4.55719 12.8677V15.7541Z" fill="#05B1A1"/>
</svg>
