<svg width="22" height="22" viewBox="0 0 22 22" fill="none" xmlns="http://www.w3.org/2000/svg">
<path fill-rule="evenodd" clip-rule="evenodd" d="M4.58331 1.83331H17.4166C18.9354 1.83331 20.1666 3.06453 20.1666 4.58331V17.4166C20.1666 18.9354 18.9354 20.1666 17.4166 20.1666H4.58331C3.06453 20.1666 1.83331 18.9354 1.83331 17.4166V4.58331C1.83331 3.06453 3.06453 1.83331 4.58331 1.83331ZM4.58331 18.3333H17.4166C17.7713 18.3306 18.0927 18.1236 18.2416 17.8016L8.38748 10.4225L3.66665 15.9225V17.4166C3.66665 17.9229 4.07705 18.3333 4.58331 18.3333ZM18.3333 15.5833L12.8333 11.4216L14.7766 9.47831L18.3333 12.3566V15.5833ZM15.235 7.53498L18.3333 10.01V4.58331C18.3333 4.07705 17.9229 3.66665 17.4166 3.66665H4.58331C4.07705 3.66665 3.66665 4.07705 3.66665 4.58331V13.1083L7.55331 8.57081C7.86757 8.20337 8.41319 8.14319 8.79998 8.43331L11.2658 10.3491L14.0158 7.59915C14.3468 7.27088 14.8714 7.24327 15.235 7.53498Z" fill="white"/>
</svg>
