<svg width="20" height="20" viewBox="0 0 20 20" fill="none" xmlns="http://www.w3.org/2000/svg">
<path fill-rule="evenodd" clip-rule="evenodd" d="M17.6124 10.4679L17.6446 17.6942C17.648 18.5191 16.9623 19.194 16.1283 19.194H12.6755V14.6435C12.6755 13.6004 11.8128 12.746 10.7572 12.746H9.0928C8.03833 12.746 7.17453 13.6004 7.17453 14.6435V19.194H3.93531C3.10138 19.194 2.41908 18.5191 2.41908 17.6942L2.41218 10.4679H0.953383C-0.129805 10.4679 -0.264198 9.75665 0.419255 9.07947L9.30875 0.286355C9.6947 -0.095411 10.3265 -0.095411 10.7124 0.286355L19.6019 9.07947C20.1418 9.61349 20.2463 10.4679 19.1884 10.4679H17.6124Z" fill="#797979"/>
</svg>
