<svg width="18" height="18" viewBox="0 0 18 18" fill="none" xmlns="http://www.w3.org/2000/svg">
<path d="M13.4438 5.19151L14.9507 3.64334M3.34975 15.6571L4.48507 14.4805L3.34975 15.6571Z" stroke="#05B1A1" stroke-width="0.8" stroke-linecap="round" stroke-linejoin="round"/>
<path d="M8.86123 3.375L8.81995 1.125" stroke="#05B1A1" stroke-width="0.8" stroke-linecap="round" stroke-linejoin="round"/>
<path d="M4.48508 5.19151L2.99884 3.64334M14.5998 15.6571L13.4438 14.4805L14.5998 15.6571Z" stroke="#05B1A1" stroke-width="0.8" stroke-linecap="round" stroke-linejoin="round"/>
<path d="M15.4255 9.83603H17.3039M0.625 9.83603H2.50344H0.625Z" stroke="#05B1A1" stroke-width="0.8" stroke-linecap="round" stroke-linejoin="round"/>
<path fill-rule="evenodd" clip-rule="evenodd" d="M11.039 14.5011V17.5768H7.11697V14.5011C5.30046 13.7374 4 11.9415 4 9.83599C4 7.02865 6.27064 4.75801 9.07798 4.75801C11.8853 4.75801 14.156 7.02865 14.156 9.83599C14.156 11.9415 12.8761 13.7374 11.039 14.5011Z" stroke="#05B1A1" stroke-width="0.8" stroke-linecap="round" stroke-linejoin="round"/>
<path d="M11.297 15.75H7.375" stroke="#05B1A1" stroke-width="0.8"/>
</svg>
