<svg width="58" height="58" viewBox="0 0 58 58" fill="none" xmlns="http://www.w3.org/2000/svg">
<g filter="url(#filter0_d_2_10358)">
<path d="M29 50C42.8071 50 54 38.8071 54 25C54 11.1929 42.8071 0 29 0C15.1929 0 4 11.1929 4 25C4 38.8071 15.1929 50 29 50Z" fill="#05B1A1"/>
<path d="M26.5183 30.7728C27.1045 30.7728 27.5797 30.2976 27.5797 29.7114C27.5797 29.1252 27.1045 28.65 26.5183 28.65C25.9321 28.65 25.4569 29.1252 25.4569 29.7114C25.4569 30.2976 25.9321 30.7728 26.5183 30.7728Z" fill="#FEFEFE"/>
<path d="M37.7813 21.2966C36.277 23.0681 34.7116 24.5266 33.0928 25.6949C31.474 26.8708 29.7941 27.7489 28.0684 28.3445C27.8699 28.4132 27.6561 28.3063 27.5873 28.1078C27.5568 28.0162 27.5568 27.9245 27.5873 27.8482C28.6335 24.664 30.0079 21.7929 31.7031 19.2349C31.7107 19.2196 31.7184 19.212 31.726 19.1967C31.8558 18.9981 31.9933 18.7996 32.1307 18.6011C34.0244 15.8674 36.2923 13.4927 38.9267 11.4691C39.0947 11.3393 39.3314 11.3699 39.4612 11.5379C39.5146 11.6066 39.5452 11.6982 39.5375 11.7822C39.5223 12.2633 39.5223 12.7978 39.5223 13.3628C39.5299 15.3635 39.5452 17.6619 38.5296 18.7538C37.9187 19.4105 36.8344 19.7083 35.6814 19.8228C36.445 20.0672 37.1246 20.3573 37.6973 20.7315C37.8729 20.846 37.9264 21.0828 37.8118 21.2584C37.8042 21.2737 37.7966 21.2813 37.7813 21.2966ZM32.6499 25.0763C34.1084 24.0226 35.5287 22.7168 36.9031 21.1438C36.3534 20.846 35.6967 20.6093 34.9713 20.4108C34.1237 20.1741 33.1845 19.9908 32.2147 19.8381C30.7486 22.0983 29.5269 24.5953 28.5647 27.3442C29.9621 26.7944 31.3213 26.0385 32.6499 25.0763ZM32.7568 19.0287L32.7187 19.0821C34.4138 19.1814 37.033 19.2425 37.9722 18.2346C38.7816 17.3641 38.7739 15.226 38.7663 13.3628C38.7663 13.0879 38.7587 12.8207 38.7663 12.5687C36.4603 14.4319 34.452 16.5852 32.7568 19.0287Z" fill="#FEFEFE"/>
<path d="M19.0351 35.1252C18.7144 35.1252 18.4624 34.8732 18.4624 34.5525C18.4624 34.2394 18.7144 33.9798 19.0351 33.9798H21.9444V31.0705C21.9444 30.7498 22.204 30.4978 22.5171 30.4978C22.8302 30.4978 23.0898 30.7498 23.0898 31.0705V33.9798H25.9991C26.3198 33.9798 26.5718 34.2394 26.5718 34.5525C26.5718 34.8732 26.3198 35.1252 25.9991 35.1252H23.0898V38.0421C23.0898 38.3552 22.8302 38.6148 22.5171 38.6148C22.204 38.6148 21.9444 38.3552 21.9444 38.0421V35.1252H19.0351Z" fill="#FEFEFE"/>
</g>
<defs>
<filter id="filter0_d_2_10358" x="0" y="0" width="58" height="58" filterUnits="userSpaceOnUse" color-interpolation-filters="sRGB">
<feFlood flood-opacity="0" result="BackgroundImageFix"/>
<feColorMatrix in="SourceAlpha" type="matrix" values="0 0 0 0 0 0 0 0 0 0 0 0 0 0 0 0 0 0 127 0" result="hardAlpha"/>
<feOffset dy="4"/>
<feGaussianBlur stdDeviation="2"/>
<feComposite in2="hardAlpha" operator="out"/>
<feColorMatrix type="matrix" values="0 0 0 0 0 0 0 0 0 0 0 0 0 0 0 0 0 0 0.25 0"/>
<feBlend mode="normal" in2="BackgroundImageFix" result="effect1_dropShadow_2_10358"/>
<feBlend mode="normal" in="SourceGraphic" in2="effect1_dropShadow_2_10358" result="shape"/>
</filter>
</defs>
</svg>
