<svg width="17" height="18" viewBox="0 0 17 18" fill="none" xmlns="http://www.w3.org/2000/svg">
<path d="M5.50995 9.83998C5.50995 8.3212 6.74117 7.08998 8.25995 7.08998H8.73995C10.2587 7.08998 11.4899 8.3212 11.4899 9.83998V12.53H5.50995V9.83998Z" stroke="#05B1A1" stroke-width="0.5"/>
<path d="M6.04993 3.59999C6.04993 2.2469 7.14683 1.14999 8.49993 1.14999C9.85302 1.14999 10.9499 2.2469 10.9499 3.59999C10.9499 4.95309 9.85302 6.04999 8.49993 6.04999C7.14683 6.04999 6.04993 4.95309 6.04993 3.59999Z" stroke="#05B1A1" stroke-width="0.5"/>
<path d="M0.748169 10.571C0.748169 9.24498 1.82309 8.17006 3.14908 8.17006C4.47506 8.17006 5.54999 9.24498 5.54999 10.571V12.5301H0.748169V10.571Z" stroke="#05B1A1" stroke-width="0.5"/>
<path d="M1.18997 5.26915C1.18997 4.18717 2.06709 3.31006 3.14906 3.31006C4.23104 3.31006 5.10815 4.18717 5.10815 5.26915C5.10815 6.35113 4.23104 7.22824 3.14906 7.22824C2.06709 7.22824 1.18997 6.35113 1.18997 5.26915Z" stroke="#05B1A1" stroke-width="0.5"/>
<path d="M11.45 10.571C11.45 9.24498 12.5249 8.17006 13.8509 8.17006C15.1769 8.17006 16.2518 9.24498 16.2518 10.571V12.5301H11.45V10.571Z" stroke="#05B1A1" stroke-width="0.5"/>
<path d="M11.8918 5.26915C11.8918 4.18717 12.7689 3.31006 13.8509 3.31006C14.9329 3.31006 15.81 4.18717 15.81 5.26915C15.81 6.35113 14.9329 7.22824 13.8509 7.22824C12.7689 7.22824 11.8918 6.35113 11.8918 5.26915Z" stroke="#05B1A1" stroke-width="0.5"/>
<path d="M0.649963 15.21C0.649963 14.3043 1.38422 13.57 2.28996 13.57H14.71C15.6157 13.57 16.35 14.3043 16.35 15.21C16.35 16.1158 15.6157 16.85 14.71 16.85H2.28996C1.38422 16.85 0.649963 16.1158 0.649963 15.21Z" stroke="#05B1A1" stroke-width="0.5"/>
<path d="M0.649963 15.21C0.649963 14.3043 1.38422 13.57 2.28996 13.57H10.95V16.85H2.28996C1.38422 16.85 0.649963 16.1158 0.649963 15.21Z" fill="#05B1A1" stroke="#05B1A1" stroke-width="0.5"/>
</svg>
