<svg width="17" height="16" viewBox="0 0 17 16" fill="none" xmlns="http://www.w3.org/2000/svg">
<path d="M0.799994 4.25453C0.799994 3.92316 1.06862 3.65453 1.39999 3.65453H3.32727C3.65864 3.65453 3.92727 3.92316 3.92727 4.25453V14.6364H0.799994V4.25453Z" stroke="#05B1A1" stroke-width="0.8"/>
<path d="M4.7273 1.80002C4.7273 1.46865 4.99593 1.20002 5.3273 1.20002H7.74548C8.07685 1.20002 8.34548 1.46865 8.34548 1.80002V14.6364H4.7273V1.80002Z" stroke="#05B1A1" stroke-width="0.8"/>
<path d="M9.14548 5.7273C9.14548 5.39592 9.41411 5.12729 9.74548 5.12729H11.6728C12.0041 5.12729 12.2728 5.39592 12.2728 5.72729V14.6364H9.14548V5.7273Z" stroke="#05B1A1" stroke-width="0.8"/>
<path d="M13.0728 11.1273C13.0728 10.7959 13.3414 10.5273 13.6728 10.5273H15.6C15.9314 10.5273 16.2 10.7959 16.2 11.1273V14.6364H13.0728V11.1273Z" stroke="#05B1A1" stroke-width="0.8"/>
</svg>
