<svg width="22" height="21" viewBox="0 0 22 21" fill="none" xmlns="http://www.w3.org/2000/svg">
<path d="M16.2939 12.5786H15.3905L15.0703 12.2699C16.191 10.9663 16.8656 9.27387 16.8656 7.43282C16.8656 3.32762 13.538 0 9.43282 0C5.32762 0 2 3.32762 2 7.43282C2 11.538 5.32762 14.8656 9.43282 14.8656C11.2739 14.8656 12.9663 14.191 14.2699 13.0703L14.5786 13.3905V14.2939L20.2962 20L22 18.2962L16.2939 12.5786Z" fill="#05B1A1"/>
<g filter="url(#filter0_d_208_764)">
<path d="M9.43285 12.5786C6.5855 12.5786 4.28705 10.2802 4.28705 7.43282C4.28705 4.58547 6.5855 2.28702 9.43285 2.28702C12.2802 2.28702 14.5786 4.58547 14.5786 7.43282C14.5786 10.2802 12.2802 12.5786 9.43285 12.5786Z" fill="white"/>
</g>
<defs>
<filter id="filter0_d_208_764" x="0.287048" y="2.28702" width="18.2916" height="18.2916" filterUnits="userSpaceOnUse" color-interpolation-filters="sRGB">
<feFlood flood-opacity="0" result="BackgroundImageFix"/>
<feColorMatrix in="SourceAlpha" type="matrix" values="0 0 0 0 0 0 0 0 0 0 0 0 0 0 0 0 0 0 127 0" result="hardAlpha"/>
<feOffset dy="4"/>
<feGaussianBlur stdDeviation="2"/>
<feComposite in2="hardAlpha" operator="out"/>
<feColorMatrix type="matrix" values="0 0 0 0 0 0 0 0 0 0 0 0 0 0 0 0 0 0 0.25 0"/>
<feBlend mode="normal" in2="BackgroundImageFix" result="effect1_dropShadow_208_764"/>
<feBlend mode="normal" in="SourceGraphic" in2="effect1_dropShadow_208_764" result="shape"/>
</filter>
</defs>
</svg>
